<?xml version="1.0" encoding="utf-8"?>
<!-- Generator: Adobe Illustrator 26.2.1, SVG Export Plug-In . SVG Version: 6.00 Build 0)  -->
<svg version="1.1" id="Layer_1" xmlns="http://www.w3.org/2000/svg" xmlns:xlink="http://www.w3.org/1999/xlink" x="0px" y="0px"
	 viewBox="0 0 196.2 38.3" style="enable-background:new 0 0 196.2 38.3;" xml:space="preserve">
<style type="text/css">
	.st0{fill:#4881FF;stroke:#000072;stroke-width:1.5;stroke-miterlimit:10;}
	.st1{fill:#FF3E3E;stroke:#000072;stroke-width:1.5;stroke-miterlimit:10;}
	.st2{fill:#FDC7A3;}
	.st3{fill:#000072;}
	.st4{fill:#F28B51;}
	.st5{opacity:0.3;}
	.st6{fill:#FF3E3E;}
	.st7{opacity:0.6;}
	.st8{fill:#FFFFFF;}
	.st9{fill:#FA9B27;}
	.st10{fill:#4881FF;}
	.st11{fill:#99FF22;}
	.st12{fill:none;}
	.st13{fill:#B2A1A1;}
	.st14{fill:#5065C2;}
	.st15{fill:#A84535;}
	.st16{fill:#FF668F;}
	.st17{fill:none;stroke:#0D0D79;stroke-width:5.0899;stroke-linecap:round;stroke-linejoin:round;stroke-miterlimit:10;}
	.st18{fill:#C4B7B7;}
	.st19{fill:#F7AE46;}
	.st20{fill:#B199C5;}
	.st21{opacity:0.5;}
	.st22{fill:#FF0068;}
</style>
<g>
	<path class="st0" d="M38.1,16c0-2.1,0.3-3.9,0.9-5.5c0.6-1.6,1.5-3,2.6-4.1s2.5-2,4.1-2.6s3.4-0.9,5.4-0.9c1.9,0,3.7,0.3,5.2,0.9
		c1.5,0.6,2.9,1.4,3.9,2.5s1.9,2.4,2.5,3.9s0.9,3.3,0.9,5.2c0,1.6-0.2,3-0.5,4.3c-0.4,1.3-0.9,2.5-1.6,3.6c-0.7,1.1-1.5,2-2.5,2.7
		c-1,0.8-2.1,1.3-3.3,1.8c0.4,0.5,0.9,0.9,1.5,1.3c0.5,0.3,1.1,0.6,1.7,0.9c0.6,0.2,1.3,0.4,2,0.6c0.7,0.1,1.4,0.3,2.2,0.4
		c0.9,0.1,1.5,0.4,1.8,0.8c0.4,0.5,0.5,1,0.5,1.7c0,0.5-0.1,0.9-0.3,1.3s-0.5,0.8-0.8,1.1c-0.4,0.3-0.8,0.5-1.4,0.7
		c-0.6,0.2-1.2,0.3-2,0.3c-0.7,0-1.4-0.1-2.1-0.2s-1.4-0.3-2.2-0.6c-0.7-0.3-1.5-0.6-2.2-1.1c-0.7-0.4-1.4-1-2-1.6s-1.2-1.3-1.8-2.1
		c-0.5-0.8-1-1.7-1.4-2.7c-1.7-0.1-3.3-0.5-4.7-1.1S41.9,26,41,25c-1-1.1-1.7-2.3-2.2-3.8C38.3,19.5,38.1,17.8,38.1,16z M45.9,15.6
		c0,1.2,0.1,2.2,0.4,3.1c0.3,0.9,0.6,1.6,1.1,2.2c0.4,0.6,1,1,1.6,1.3s1.2,0.4,1.9,0.4s1.3-0.1,1.9-0.4c0.6-0.3,1.1-0.7,1.6-1.3
		c0.4-0.6,0.8-1.3,1.1-2.2c0.3-0.9,0.4-1.9,0.4-3.1c0-1.2-0.1-2.2-0.4-3.1c-0.3-0.9-0.6-1.6-1.1-2.2c-0.4-0.6-1-1-1.6-1.3
		s-1.2-0.4-1.9-0.4S49.6,8.7,49,9c-0.6,0.3-1.1,0.7-1.6,1.3s-0.8,1.3-1.1,2.2S45.9,14.4,45.9,15.6z"/>
	<path class="st0" d="M63.9,12.5c0-1,0.3-1.8,0.9-2.4c0.6-0.6,1.5-0.8,2.8-0.8s2.2,0.3,2.8,0.8c0.6,0.6,0.9,1.4,0.9,2.4V20
		c0,0.9,0.2,1.6,0.5,2s0.8,0.6,1.3,0.6c0.2,0,0.4,0,0.6-0.1c0.2-0.1,0.3-0.1,0.5-0.2s0.3-0.2,0.4-0.3c0.1-0.1,0.2-0.2,0.4-0.3
		c0.2-0.3,0.4-0.6,0.6-0.9v-8.2c0-1,0.3-1.8,0.9-2.4c0.6-0.6,1.5-0.8,2.8-0.8s2.2,0.3,2.8,0.8c0.6,0.6,0.9,1.4,0.9,2.4v12.6
		c0,1-0.3,1.8-0.8,2.3s-1.3,0.8-2.3,0.8c-0.5,0-0.9-0.1-1.3-0.2c-0.4-0.1-0.7-0.3-0.9-0.5s-0.5-0.4-0.6-0.7
		c-0.2-0.3-0.3-0.6-0.4-0.9l-0.1-0.4h-0.1c-0.3,0.5-0.7,1-1.2,1.4c-0.2,0.2-0.5,0.3-0.8,0.5s-0.6,0.3-1,0.4s-0.8,0.2-1.2,0.3
		s-0.9,0.1-1.4,0.1c-1.1,0-2.1-0.2-2.9-0.5c-0.9-0.3-1.6-0.8-2.2-1.5c-0.6-0.6-1.1-1.4-1.4-2.4c-0.3-0.9-0.5-2-0.5-3.2V12.5z"/>
	<path class="st0" d="M84,4.6c0-1,0.3-1.8,0.9-2.4c0.6-0.6,1.5-0.8,2.8-0.8s2.2,0.3,2.8,0.8s0.9,1.4,0.9,2.4v16c0,0.4,0,0.8,0.1,1
		c0,0.3,0.1,0.5,0.2,0.6c0.1,0.2,0.2,0.3,0.3,0.3s0.2,0.1,0.4,0.1c0.1,0,0.2,0,0.3,0s0.2,0,0.3,0c0.2,0,0.4,0,0.6,0.1
		s0.4,0.2,0.5,0.4s0.3,0.4,0.4,0.6c0.1,0.3,0.1,0.5,0.1,0.9c0,0.5-0.1,1-0.2,1.4c-0.2,0.4-0.4,0.7-0.6,1c-0.2,0.2-0.3,0.3-0.6,0.5
		s-0.5,0.3-0.8,0.4s-0.7,0.2-1.1,0.3c-0.4,0.1-0.9,0.1-1.5,0.1c-1.9,0-3.3-0.5-4.2-1.4s-1.4-2.4-1.4-4.3v-18H84z"/>
	<path class="st1" d="M100.2,6.6c0-1.1,0.3-1.9,0.9-2.5c0.6-0.6,1.4-0.9,2.5-0.9h5.8c1.8,0,3.4,0.2,4.7,0.5s2.4,0.8,3.2,1.3
		c0.8,0.6,1.4,1.2,1.8,2c0.4,0.8,0.6,1.5,0.6,2.4c0,0.7-0.1,1.3-0.3,1.8c-0.2,0.6-0.4,1.1-0.7,1.5c-0.3,0.5-0.7,0.9-1.2,1.2
		s-1,0.6-1.7,0.8v0.1c0.7,0.1,1.3,0.3,1.9,0.6c0.6,0.3,1.1,0.7,1.5,1.1s0.7,1,1,1.6c0.2,0.6,0.4,1.3,0.4,2c0,1.1-0.2,2.2-0.6,3.1
		c-0.4,1-1.1,1.8-2,2.5s-2.1,1.2-3.5,1.6s-3.1,0.6-5.1,0.6h-5.5c-1.1,0-1.9-0.3-2.5-0.9s-0.9-1.4-0.9-2.5V6.6H100.2z M109.1,12.9
		c0.5,0,0.9-0.1,1.2-0.2c0.4-0.1,0.6-0.3,0.9-0.5c0.2-0.2,0.4-0.5,0.5-0.7s0.2-0.6,0.2-1c0-0.3-0.1-0.7-0.2-0.9
		c-0.1-0.3-0.3-0.5-0.5-0.7s-0.5-0.3-0.9-0.4c-0.4-0.1-0.8-0.1-1.3-0.1h-1.5V13h1.6V12.9z M109.3,22.8c0.6,0,1.1-0.1,1.5-0.2
		s0.8-0.3,1-0.5c0.3-0.2,0.5-0.5,0.6-0.8s0.2-0.7,0.2-1s-0.1-0.7-0.2-1c-0.1-0.3-0.3-0.6-0.6-0.8c-0.3-0.2-0.6-0.4-1-0.5
		s-0.9-0.2-1.5-0.2h-1.8v5H109.3z"/>
	<path class="st1" d="M127.3,20.5L127.3,20.5c0.1,0.4,0.3,0.8,0.5,1c0.2,0.3,0.5,0.5,0.8,0.7s0.7,0.3,1.2,0.4s1,0.1,1.5,0.1
		s1,0,1.4-0.1s0.8-0.1,1.1-0.2s0.6-0.1,0.9-0.2c0.3-0.1,0.5-0.1,0.8-0.1s0.6,0.1,0.9,0.2s0.5,0.3,0.7,0.5s0.3,0.4,0.4,0.7
		c0.1,0.3,0.1,0.6,0.1,0.9c0,0.5-0.1,0.8-0.2,1.2c-0.1,0.3-0.4,0.6-0.6,0.9c-0.2,0.2-0.5,0.4-0.9,0.7c-0.4,0.2-0.9,0.4-1.4,0.6
		c-0.6,0.2-1.2,0.3-2,0.5c-0.7,0.1-1.6,0.2-2.5,0.2c-1.6,0-3-0.2-4.3-0.6c-1.2-0.4-2.3-1-3.1-1.8s-1.5-1.7-1.9-2.9
		c-0.4-1.1-0.7-2.4-0.7-3.7c0-1.6,0.2-3,0.7-4.3s1.2-2.4,2-3.3c0.9-0.9,2-1.6,3.2-2.1c1.3-0.5,2.6-0.7,4.2-0.7
		c1.3,0,2.5,0.2,3.5,0.6c1,0.4,1.9,0.9,2.6,1.6c0.7,0.7,1.3,1.5,1.6,2.5c0.4,1,0.6,2.1,0.6,3.3c0,1.2-0.3,2.1-0.8,2.6
		s-1.3,0.9-2.3,0.9h-8V20.5z M131.7,16.6c-0.1-0.9-0.3-1.6-0.6-2s-0.8-0.6-1.5-0.6c-0.3,0-0.5,0-0.8,0.1c-0.2,0.1-0.5,0.2-0.6,0.4
		c-0.2,0.2-0.4,0.5-0.5,0.8c-0.2,0.3-0.3,0.7-0.4,1.3H131.7z"/>
	<path class="st1" d="M149.3,16.1c0-0.3,0-0.5-0.1-0.7s-0.2-0.4-0.5-0.5c-0.2-0.1-0.5-0.3-0.9-0.3c-0.4-0.1-0.9-0.1-1.5-0.1
		c-0.8,0-1.4,0.1-2,0.2c-0.5,0.1-1,0.2-1.4,0.4c-0.4,0.1-0.8,0.3-1.1,0.4c-0.3,0.1-0.6,0.2-1,0.2c-0.6,0-1.1-0.2-1.5-0.6
		c-0.4-0.4-0.6-1-0.6-1.7c0-0.4,0.1-0.8,0.2-1.1c0.1-0.3,0.3-0.6,0.6-0.9c0.3-0.3,0.6-0.5,1.1-0.8s1.1-0.5,1.8-0.7s1.5-0.4,2.4-0.5
		s1.9-0.2,3.1-0.2c2.9,0,5,0.6,6.5,1.7c1.4,1.1,2.2,2.8,2.2,5v4.6c0,0.9,0,1.5,0.1,2.1c0.1,0.5,0.2,1,0.3,1.3c0.1,0.4,0.2,0.7,0.3,1
		s0.1,0.6,0.1,1s-0.1,0.7-0.2,1s-0.3,0.6-0.6,0.8c-0.3,0.2-0.6,0.4-1,0.6s-0.9,0.2-1.5,0.2c-0.5,0-1-0.1-1.4-0.2s-0.8-0.3-1.1-0.5
		s-0.6-0.4-0.8-0.7c-0.2-0.3-0.4-0.6-0.5-0.9h-0.1c-0.3,0.5-0.8,0.9-1.3,1.2c-0.5,0.3-1,0.6-1.7,0.8s-1.6,0.4-2.6,0.4
		c-1.1,0-2-0.2-2.9-0.5c-0.8-0.3-1.6-0.7-2.2-1.3c-0.6-0.6-1-1.2-1.4-2c-0.3-0.8-0.5-1.6-0.5-2.5s0.2-1.7,0.7-2.4
		c0.4-0.7,1.1-1.3,1.8-1.7s1.7-0.8,2.8-1.1c1.1-0.2,2.3-0.4,3.6-0.4c0.3,0,0.7,0,1,0s0.6,0,0.8,0.1c0.3,0,0.5,0.1,0.8,0.1v-0.8
		H149.3z M149.3,20.7c-0.1,0-0.3-0.1-0.5-0.1s-0.4,0-0.6-0.1c-0.2,0-0.5,0-0.8,0c-0.7,0-1.2,0.1-1.5,0.3c-0.4,0.2-0.5,0.6-0.5,1
		c0,0.2,0,0.4,0.1,0.6s0.2,0.3,0.3,0.4s0.3,0.2,0.5,0.3c0.2,0.1,0.4,0.1,0.7,0.1c0.4,0,0.7-0.1,1-0.2s0.5-0.2,0.7-0.4
		c0.2-0.2,0.4-0.3,0.6-0.6V20.7z"/>
	<path class="st1" d="M157.7,12.3c0-1,0.3-1.8,0.8-2.3s1.3-0.8,2.3-0.8c0.5,0,0.9,0.1,1.3,0.2c0.4,0.1,0.7,0.3,0.9,0.5
		c0.3,0.2,0.5,0.4,0.6,0.7s0.3,0.6,0.4,0.9l0.1,0.4h0.1c0.3-0.5,0.7-1,1.2-1.4c0.2-0.2,0.5-0.3,0.8-0.5s0.6-0.3,1-0.4
		c0.4-0.1,0.7-0.2,1.2-0.3c0.4-0.1,0.9-0.1,1.4-0.1c1.1,0,2.1,0.2,2.9,0.5c0.9,0.3,1.6,0.8,2.2,1.5c0.6,0.6,1.1,1.4,1.4,2.4
		c0.3,0.9,0.5,2,0.5,3.2V25c0,1-0.3,1.8-0.9,2.4c-0.6,0.6-1.5,0.8-2.8,0.8s-2.2-0.3-2.8-0.8c-0.6-0.6-0.9-1.4-0.9-2.4v-7.5
		c0-0.5,0-0.9-0.1-1.2s-0.2-0.6-0.4-0.8c-0.1-0.2-0.3-0.3-0.6-0.4c-0.2-0.1-0.5-0.1-0.7-0.1s-0.4,0-0.6,0.1
		c-0.2,0.1-0.3,0.1-0.5,0.2c-0.2,0.1-0.3,0.2-0.4,0.3c-0.1,0.1-0.2,0.2-0.4,0.3c-0.2,0.3-0.4,0.6-0.6,0.9V25c0,1-0.3,1.8-0.9,2.4
		c-0.6,0.6-1.5,0.8-2.8,0.8s-2.2-0.3-2.8-0.8c-0.6-0.6-0.9-1.4-0.9-2.4V12.3z"/>
	<path class="st1" d="M177.2,15.5c0-0.9,0.2-1.8,0.5-2.6c0.4-0.8,0.9-1.5,1.6-2.1c0.7-0.6,1.6-1,2.8-1.3c1.1-0.3,2.4-0.5,3.9-0.5
		c0.7,0,1.4,0,2,0.1s1.1,0.2,1.6,0.3s0.8,0.3,1.2,0.5c0.3,0.2,0.6,0.4,0.8,0.6c0.3,0.3,0.5,0.6,0.6,0.9s0.2,0.7,0.2,1.1
		c0,0.3-0.1,0.6-0.2,0.9c-0.1,0.3-0.3,0.5-0.5,0.7s-0.4,0.3-0.7,0.4c-0.3,0.1-0.5,0.2-0.8,0.2s-0.6,0-0.9-0.1
		c-0.3-0.1-0.6-0.1-1-0.2c-0.3-0.1-0.7-0.2-1.1-0.2c-0.4-0.1-0.8-0.1-1.3-0.1c-0.3,0-0.6,0-0.8,0s-0.3,0.1-0.5,0.1
		c-0.1,0.1-0.2,0.1-0.2,0.2c0,0.1-0.1,0.2-0.1,0.3c0,0.2,0.1,0.4,0.4,0.5c0.3,0.1,0.6,0.3,1,0.4c0.4,0.1,0.9,0.2,1.4,0.3
		c0.5,0.1,1.1,0.3,1.6,0.4c0.5,0.2,1.1,0.4,1.6,0.7s1,0.6,1.4,1c0.4,0.4,0.7,0.9,1,1.5s0.4,1.3,0.4,2.2c0,0.9-0.2,1.8-0.6,2.6
		c-0.4,0.8-0.9,1.5-1.7,2.1s-1.7,1.1-2.9,1.4s-2.5,0.5-4.1,0.5c-0.8,0-1.5,0-2.1-0.1s-1.1-0.2-1.6-0.3c-0.5-0.1-0.9-0.3-1.2-0.5
		s-0.6-0.4-0.8-0.6c-0.3-0.3-0.5-0.6-0.6-0.9s-0.2-0.7-0.2-1.1c0-0.6,0.2-1.1,0.6-1.5c0.4-0.4,0.9-0.6,1.5-0.6c0.3,0,0.6,0,0.9,0.1
		c0.3,0.1,0.7,0.1,1,0.2s0.8,0.2,1.2,0.2c0.4,0.1,0.9,0.1,1.4,0.1c0.4,0,0.7,0,0.9,0s0.4-0.1,0.6-0.1c0.1-0.1,0.2-0.1,0.3-0.2
		s0.1-0.2,0.1-0.3c0-0.2-0.1-0.4-0.4-0.6c-0.3-0.1-0.6-0.3-1-0.4s-0.9-0.2-1.4-0.4c-0.5-0.1-1.1-0.3-1.6-0.4
		c-0.5-0.2-1.1-0.4-1.6-0.7c-0.5-0.3-1-0.6-1.4-1s-0.7-0.9-1-1.5C177.3,17.1,177.2,16.4,177.2,15.5z"/>
</g>
<g>
	<g>
		<g>
			<g>
				<ellipse class="st2" cx="13" cy="33.2" rx="1.7" ry="0.9"/>
			</g>
			<g>
				<path class="st3" d="M12.3,34.3c-0.1,0-0.1,0-0.2-0.1c-0.1-0.1-0.1-0.3,0-0.4c0.2-0.2,0.3-0.5,0.4-0.7s0.2-0.2,0.3-0.2
					c0.1,0,0.2,0.2,0.2,0.3c0,0.1-0.1,0.7-0.5,1C12.4,34.3,12.3,34.3,12.3,34.3z"/>
			</g>
			<g>
				<path class="st3" d="M13.3,34.3c-0.1,0-0.1,0-0.1-0.1c-0.1-0.1-0.1-0.2,0-0.3c0.3-0.2,0.2-0.8,0.2-0.8c0-0.1,0.1-0.2,0.2-0.2
					c0.1,0,0.2,0.1,0.2,0.2c0,0,0.1,0.7-0.3,1.1C13.3,34.3,13.3,34.3,13.3,34.3z"/>
			</g>
			<g>
				<path class="st3" d="M13,34.4c-1.1,0-1.9-0.5-1.9-1.2c0-0.7,0.8-1.2,1.9-1.2s1.9,0.5,1.9,1.2C15,33.9,14.1,34.4,13,34.4z
					 M13,32.5c-0.8,0-1.4,0.4-1.4,0.7c0,0.3,0.6,0.7,1.4,0.7c0.8,0,1.4-0.4,1.4-0.7C14.5,32.9,13.9,32.5,13,32.5z"/>
			</g>
			<g>
				<path class="st4" d="M29.9,31.1c-0.4,0.3-0.9,0.5-1.7,0.5l-0.1-2.3l0-0.3c0,0,0.8-0.8,1.5-0.7C30.2,28.4,31.1,30.1,29.9,31.1z"
					/>
			</g>
			<g class="st5">
				<path class="st3" d="M29.6,31.4c-0.4,0.3-0.9,0.5-1.7,0.5l-0.1-2.3l0-0.3c0,0,0.8-0.8,1.5-0.7C29.9,28.7,30.8,30.4,29.6,31.4z"
					/>
			</g>
			<g>
				<path class="st4" d="M30.1,32.4c-1-0.2-2,1.1-2,1.1l0,0.5l0.1,3.1c1,0.5,1.8,0.4,2.3-0.3C32,35.3,30.9,32.5,30.1,32.4z"/>
			</g>
			<g class="st5">
				<path class="st3" d="M29.7,32.9c-1-0.2-2,1-2,1l0,0.5l0.1,2.9c1,0.4,1.8,0.4,2.3-0.3C31.5,35.6,30.4,33.1,29.7,32.9z"/>
			</g>
			<g>
				<path class="st3" d="M29.9,31.2c0,0-0.1,0-0.1,0c-0.2-0.1-0.2-0.3-0.2-0.6c0-0.7-0.1-1.2-0.3-1.4c-0.2-0.1-0.5-0.1-0.8,0.1
					c-0.1,0.1-0.2,0.1-0.3,0.1c-0.1,0-0.1,0-0.1,0c0,0-0.1-0.1-0.1-0.1l0-0.3c0,0,0-0.1,0.1-0.1c0,0,0.8-0.9,1.7-0.7
					c0.4,0.1,0.8,0.6,0.9,1.2c0.2,0.8,0,1.5-0.5,1.9C30,31.2,30,31.2,29.9,31.2z M29,28.8c0.2,0,0.3,0,0.4,0.1
					c0.5,0.3,0.5,1.2,0.5,1.7c0,0.1,0,0.1,0,0.1c0.4-0.5,0.3-1.1,0.3-1.4c-0.1-0.6-0.5-0.9-0.6-0.9c-0.5-0.1-1.1,0.4-1.3,0.6
					C28.6,28.9,28.8,28.8,29,28.8z"/>
			</g>
			<g>
				<path class="st3" d="M28.2,31.8c-0.1,0-0.1,0-0.2-0.1c-0.1,0-0.1-0.1-0.1-0.2L27.9,29c0-0.1,0-0.1,0.1-0.2c0,0,0.9-0.9,1.7-0.8
					c0.4,0.1,0.8,0.7,1,1.2c0.2,0.8,0,1.5-0.6,2l0,0C29.7,31.6,29,31.8,28.2,31.8C28.2,31.8,28.2,31.8,28.2,31.8z M28.4,29.1
					l0.1,2.3c0.6-0.1,1-0.2,1.3-0.5c0.6-0.5,0.5-1.1,0.4-1.5c-0.1-0.5-0.5-0.9-0.6-0.9C29.1,28.5,28.6,28.8,28.4,29.1z M29.9,31.1
					L29.9,31.1L29.9,31.1z"/>
			</g>
			<g>
				<path class="st3" d="M30.5,37c-0.1,0-0.1,0-0.1-0.1c-0.2-0.2-0.3-0.5-0.3-0.9c0.1-1.2-0.1-2-0.5-2.3c-0.2-0.1-0.6-0.1-1,0.2
					c-0.1,0.1-0.3,0.1-0.4,0.2c-0.1,0-0.1,0-0.2,0c-0.1,0-0.1-0.1-0.1-0.2l0-0.5c0-0.1,0-0.1,0-0.1c0-0.1,1.1-1.4,2.2-1.2
					c0.5,0.1,0.9,0.8,1.1,1.5c0.4,1.3,0.2,2.5-0.6,3.2C30.6,36.9,30.6,37,30.5,37z M29.3,33.3c0.2,0,0.3,0,0.5,0.1
					c0.7,0.4,0.8,1.8,0.7,2.7c0,0.1,0,0.2,0,0.3c0.7-0.9,0.4-2.2,0.3-2.6c-0.2-0.8-0.6-1.2-0.8-1.2c-0.7-0.1-1.5,0.7-1.7,0.9v0.1
					C28.7,33.4,29,33.3,29.3,33.3z"/>
			</g>
			<g>
				<path class="st3" d="M29.4,37.6c-0.4,0-0.8-0.1-1.2-0.3c-0.1,0-0.1-0.1-0.1-0.2L27.9,34l0-0.5c0-0.1,0.1-0.3,0.2-0.3
					s0.3,0.1,0.3,0.2l0,0.5l0.1,3c0.5,0.2,1.4,0.5,1.8-0.3c0.1-0.1,0.2-0.2,0.3-0.1c0.1,0.1,0.2,0.2,0.1,0.3
					C30.4,37.4,30,37.6,29.4,37.6z"/>
			</g>
			<g>
				<ellipse class="st2" cx="12.1" cy="17.6" rx="1.5" ry="1.5"/>
				<path class="st3" d="M12.1,19.3c-1,0-1.7-0.8-1.7-1.7c0-1,0.8-1.7,1.7-1.7s1.7,0.8,1.7,1.7C13.8,18.5,13,19.3,12.1,19.3z
					 M12.1,16.4c-0.7,0-1.2,0.5-1.2,1.2c0,0.7,0.5,1.2,1.2,1.2c0.7,0,1.2-0.5,1.2-1.2C13.3,16.9,12.8,16.4,12.1,16.4z"/>
			</g>
			<g>
				<path class="st4" d="M25.6,27.6c0,0-2.6,1.3-2.8,3.7s0,5.5,0,5.5s0.9,0.5,2.4,0"/>
			</g>
			<g class="st5">
				<path class="st3" d="M25.6,27.6c0,0-2.6,1.3-2.8,3.7s0,5.5,0,5.5s0.9,0.5,2.4,0"/>
			</g>
			<g class="st5">
				<path class="st3" d="M22.8,36.9c0,0,0.9,0.5,2.4,0"/>
			</g>
			<g>
				<path class="st3" d="M23.6,37.3c-0.8,0-1.5-0.5-1.5-0.5c-0.1-0.1-0.1-0.2-0.1-0.4c0.1-0.1,0.2-0.1,0.3-0.1l0,0
					c0,0,0.7,0.5,1.4,0.4c0.1,0,0.3,0.1,0.3,0.2c0,0.1-0.1,0.3-0.2,0.3C23.8,37.3,23.7,37.3,23.6,37.3z"/>
			</g>
			<g>
				<path class="st6" d="M23.1,24.7c-1-1-2.7-1.8-4.8-0.5c-4,2.5-2.8,9.5-2.8,9.5c2.9,1.7,7.7,0.6,7.7,0.6v-2.1
					c0.3-0.3,0.1-0.7,0.1-0.7C25.7,27.3,24.8,25.1,23.1,24.7z"/>
			</g>
			<g class="st7">
				<path class="st8" d="M18.2,28l0.5,0.3c0,0,2.2-3.3,4.6-3.4C23.3,24.9,20.1,24.6,18.2,28z"/>
			</g>
			<g>
				<path class="st8" d="M22.2,30.2c-0.9-1.8-2.4-2.4-3.2-2.7c-0.3-0.1-0.6,0.1-0.8,0.3l-0.1,0.1c-0.2,0.3-0.1,0.6,0.2,0.8l2.9,2.3
					c0.3,0.2,0.6,0.2,0.9-0.1l0,0C22.3,30.7,22.4,30.4,22.2,30.2z"/>
			</g>
			<g>
				<path class="st9" d="M18.5,23.2c0,0-2.4,1.2-2.8,4.8"/>
				<path class="st3" d="M15.7,28.2C15.7,28.2,15.7,28.2,15.7,28.2c-0.2,0-0.3-0.1-0.3-0.3c0.3-3.8,2.8-5,2.9-5
					c0.1-0.1,0.3,0,0.3,0.1c0.1,0.1,0,0.3-0.1,0.3l0,0c-0.1,0-2.3,1.2-2.6,4.6C15.9,28.2,15.8,28.2,15.7,28.2z"/>
			</g>
			<g>
				<path class="st3" d="M14.8,30.1C14.8,30.1,14.8,30.1,14.8,30.1c-0.2,0-0.3-0.2-0.2-0.3c1-4.7,4.1-6.1,4.2-6.2
					c0.1-0.1,0.3,0,0.3,0.1c0.1,0.1,0,0.3-0.1,0.3l0,0c0,0-3,1.4-3.9,5.8C15.1,30,15,30.1,14.8,30.1z"/>
			</g>
			<g>
				<g>
					<path class="st8" d="M16.4,28.7c0.8-0.5-0.1-1.1-0.1-1.1l0-0.3c-3-0.8-6.6-0.8-6.6-0.8l-0.1,0.9l1.2,0.2l-1.2,0.2l0,0.5
						L16.4,28.7z"/>
				</g>
				<g>
					<path class="st3" d="M9.8,26.5l-0.1,0.9l-0.1-0.2l1.2,0.3c0,0,0,0,0,0c0,0,0,0,0,0l-1.2,0.3l0.1-0.1l0,0.5
						c0,0.1-0.1,0.1-0.2,0.1s-0.1-0.1-0.1-0.2l0-0.5v0c0-0.1,0.1-0.1,0.1-0.1l1.2,0v0l-1.3-0.1c-0.1,0-0.1-0.1-0.1-0.1l0,0v0
						l0.1-0.9c0-0.1,0.1-0.1,0.2-0.1C9.8,26.3,9.8,26.4,9.8,26.5z"/>
				</g>
				<g>
					<path class="st6" d="M16.4,28.9c-0.1,0-0.2-0.1-0.2-0.1c-0.1-0.1-0.1-0.3,0.1-0.4c0.1-0.1,0.2-0.2,0.2-0.2
						c0-0.1-0.1-0.3-0.3-0.3C16,27.8,16,27.7,16,27.6v-0.1c-2.9-0.7-6.7-0.7-6.7-0.7c-0.2,0-0.2-0.1-0.2-0.3c0-0.2,0-0.3,0.2-0.3
						c0.2,0,4.2,0,7.1,0.8c0.1,0,0.2,0.2,0.2,0.3l0,0.1c0.2,0.1,0.4,0.4,0.4,0.7c0,0.2-0.1,0.5-0.5,0.7C16.5,28.9,16.4,29,16.4,28.9
						z"/>
				</g>
				<g>
					<path class="st3" d="M16.4,29.1C16.4,29.1,16.4,29.1,16.4,29.1L16.4,29.1c-0.2,0-0.3-0.1-0.4-0.2c-0.1-0.2-0.1-0.5,0.1-0.7
						c0.1,0,0.1-0.1,0.1-0.1c0,0-0.1-0.1-0.2-0.2c-0.1-0.1-0.2-0.2-0.2-0.3C13,27,9.3,27,9.3,27c-0.2,0-0.4-0.2-0.4-0.5
						c0-0.4,0.2-0.5,0.4-0.5l0,0c0.2,0,4.2,0,7.2,0.8c0.2,0.1,0.4,0.3,0.4,0.5v0.1c0.2,0.2,0.4,0.4,0.4,0.8c0,0.2-0.1,0.6-0.5,0.9
						C16.6,29.1,16.5,29.1,16.4,29.1z M9.3,26.6c0,0,3.9,0,6.8,0.7c0.1,0,0.1,0.1,0.1,0.2v0.1c0,0,0,0.1,0.1,0.1
						c0.1,0.1,0.3,0.3,0.3,0.5c0,0.1-0.1,0.3-0.3,0.4c-0.1,0-0.1,0.1,0,0.2c0,0,0.1,0.1,0.1,0.1l0,0c0,0,0,0,0.1,0
						c0.2-0.2,0.4-0.4,0.4-0.6c0-0.3-0.2-0.5-0.3-0.6c0,0-0.1-0.1-0.1-0.1l0-0.1c0-0.1,0-0.1-0.1-0.1c-2.9-0.8-6.9-0.8-7.1-0.8
						c0,0,0,0.1,0,0.1C9.3,26.6,9.3,26.6,9.3,26.6z"/>
				</g>
				<g>
					<g>
						<path class="st8" d="M10.6,27.6c0,0,2.3,0.2,4.1,0.4"/>
					</g>
					<g>
						<g>
							<path class="st3" d="M14.7,28c0,0.1-0.9,0-2.1-0.2s-2-0.2-2-0.3c0-0.1,0.9,0,2.1,0.1C13.8,27.8,14.7,27.9,14.7,28z"/>
						</g>
					</g>
				</g>
			</g>
			<g>
				<g>
					<path class="st8" d="M16.5,30.6c0.8-0.6-0.1-1.1-0.1-1.1v-0.3C13.1,28.5,9,28.8,9,28.8v0.9l1.4,0.2l-1.3,0.3v0.6L16.5,30.6z"/>
				</g>
				<g>
					<path class="st3" d="M9.2,28.8v1L9,29.6l1.4,0.2c0,0,0,0,0,0c0,0,0,0,0,0l-1.3,0.4l0.1-0.1v0.6c0,0.1-0.1,0.1-0.1,0.1
						c-0.1,0-0.1-0.1-0.1-0.1v-0.6v0C9,30,9,30,9.1,30l1.3-0.1v0l-1.4,0c-0.1,0-0.1-0.1-0.1-0.1l0,0v0v-1c0-0.1,0.1-0.1,0.1-0.1
						C9.1,28.6,9.2,28.7,9.2,28.8z"/>
				</g>
				<g>
					<path class="st10" d="M16.5,30.9c-0.1,0-0.2,0-0.3-0.1c-0.1-0.1-0.1-0.3,0.1-0.5c0.1-0.1,0.2-0.2,0.2-0.3
						c0-0.1-0.2-0.3-0.3-0.3c-0.1-0.1-0.2-0.2-0.2-0.3v-0.1c-3.2-0.6-7.4-0.3-7.5-0.3c-0.2,0-0.2-0.1-0.2-0.3c0-0.2,0-0.3,0.2-0.3
						c0.2,0,4.6-0.3,7.9,0.4c0.2,0,0.3,0.2,0.3,0.3v0.1c0.2,0.1,0.4,0.4,0.5,0.7c0,0.2-0.1,0.5-0.4,0.8
						C16.7,30.9,16.6,30.9,16.5,30.9z"/>
				</g>
				<g>
					<path class="st3" d="M16.5,31.1c-0.2,0-0.3-0.1-0.4-0.2c-0.2-0.2-0.1-0.5,0.1-0.7c0.1-0.1,0.1-0.1,0.1-0.1c0,0-0.1-0.1-0.2-0.2
						c-0.1-0.1-0.2-0.2-0.2-0.3c-3.2-0.5-7.3-0.3-7.3-0.3c-0.3,0-0.4-0.1-0.4-0.5c0-0.3,0.1-0.5,0.3-0.5c0.2,0,4.6-0.3,7.9,0.4
						c0.2,0,0.4,0.3,0.4,0.5v0.1c0.2,0.2,0.4,0.4,0.5,0.8c0,0.3-0.1,0.6-0.5,1C16.7,31.1,16.6,31.1,16.5,31.1z M10.9,28.9
						c1.5,0,3.5,0.1,5.2,0.4c0.1,0,0.1,0.1,0.1,0.2v0.1c0,0.1,0,0.1,0.1,0.1c0,0,0.4,0.2,0.4,0.5c0,0.1-0.1,0.3-0.3,0.4
						c-0.1,0.1-0.1,0.1,0,0.2c0,0,0.1,0.1,0.1,0.1c0,0,0.1,0,0.1,0c0.3-0.2,0.4-0.4,0.4-0.7c0-0.3-0.3-0.5-0.4-0.6
						c0,0-0.1-0.1-0.1-0.1v-0.1c0-0.1-0.1-0.1-0.1-0.1c-3.3-0.6-7.7-0.4-7.9-0.4c0,0,0,0,0,0c0,0,0,0.1,0,0.2c0,0.1,0,0.1,0,0.1
						c0,0,0,0,0,0C8.6,29,9.6,28.9,10.9,28.9z M16.4,30.1L16.4,30.1L16.4,30.1z"/>
				</g>
				<g>
					<g>
						<path class="st8" d="M9.3,29.5c0,0,2.5,0,4.5,0.2"/>
					</g>
					<g>
						<g>
							<path class="st3" d="M13.8,29.7c0,0-0.3,0-0.7,0c-0.4,0-1,0-1.6-0.1c-1.2,0-2.3-0.1-2.3-0.1s1-0.1,2.3,0
								c0.6,0,1.2,0.1,1.6,0.1C13.6,29.6,13.8,29.7,13.8,29.7z"/>
						</g>
					</g>
				</g>
			</g>
			<g>
				<path class="st8" d="M17,32.7H8.1c0,0-0.1,0-0.1-0.1V31c0,0,0-0.1,0.1-0.1H17c0,0,0.1,0,0.1,0.1L17,32.7
					C17,32.7,17,32.7,17,32.7z"/>
				<path class="st3" d="M16.1,33H8.9c-0.6,0-1.1-0.5-1.1-1.1s0.5-1.1,1.1-1.1h7.2c0.6,0,1.1,0.5,1.1,1.1C17.3,32.4,16.7,33,16.1,33
					z M8.9,31.1c-0.4,0-0.7,0.3-0.7,0.7c0,0.4,0.3,0.7,0.7,0.7h7.2c0.4,0,0.7-0.3,0.7-0.7c0-0.4-0.3-0.7-0.7-0.7H8.9z"/>
			</g>
			<g>
				<rect x="8.9" y="30.9" class="st8" width="8.1" height="1.8"/>
				<path class="st3" d="M17,32.9H8.9c-0.1,0-0.2-0.1-0.2-0.2v-1.8c0-0.1,0.1-0.2,0.2-0.2H17c0.1,0,0.2,0.1,0.2,0.2v1.8
					C17.2,32.8,17.1,32.9,17,32.9z M9.1,32.6h7.8v-1.5H9.1V32.6z"/>
			</g>
			<g>
				<g>
					<path class="st11" d="M16.7,33.2H9.1c-1,0-1.7-0.6-1.7-1.4s0.8-1.4,1.7-1.4h8.1c0.2,0,0.4,0.2,0.4,0.4s-0.2,0.4-0.4,0.4H9.1
						c-0.5,0-0.9,0.3-0.9,0.6c0,0.3,0.4,0.6,0.9,0.6h7.7c0.2,0,0.4,0.2,0.4,0.4S17,33.2,16.7,33.2z"/>
					<path class="st3" d="M16.7,33.4H9.1c-1.1,0-2-0.7-2-1.6s0.9-1.6,2-1.6h8.1c0.4,0,0.6,0.3,0.6,0.6c0,0.3-0.3,0.6-0.6,0.6H9.1
						c-0.4,0-0.7,0.2-0.7,0.4c0,0.2,0.3,0.4,0.7,0.4h7.7c0.4,0,0.6,0.3,0.6,0.6C17.4,33.2,17.1,33.4,16.7,33.4z M9.1,30.7
						c-0.8,0-1.5,0.5-1.5,1.1c0,0.6,0.7,1.1,1.5,1.1h7.7c0.1,0,0.2-0.1,0.2-0.2c0-0.1-0.1-0.2-0.2-0.2H9.1c-0.6,0-1.1-0.4-1.1-0.8
						c0-0.4,0.5-0.8,1.1-0.8h8.1c0.1,0,0.2-0.1,0.2-0.2s-0.1-0.2-0.2-0.2L9.1,30.7L9.1,30.7z"/>
				</g>
			</g>
			<g>
				<g>
					<line class="st12" x1="9.4" y1="31.8" x2="13.7" y2="31.8"/>
				</g>
				<g>
					<g>
						<path class="st3" d="M13.7,31.8c0,0.1-1,0.1-2.2,0.1s-2.2,0-2.2-0.1c0-0.1,1-0.1,2.2-0.1S13.7,31.8,13.7,31.8z"/>
					</g>
				</g>
			</g>
			<g>
				<g>
					<path class="st8" d="M16.8,25.4l-8.1-0.8c-0.8,1.5,0,1.9,0,1.9l7.6,0.7C17,26.7,16.8,25.4,16.8,25.4z"/>
					<path class="st3" d="M16.4,27.4C16.4,27.4,16.4,27.4,16.4,27.4l-7.6-0.7c0,0,0,0-0.1,0c0,0-0.9-0.6-0.1-2.1
						c0-0.1,0.1-0.1,0.1-0.1l8.1,0.8c0.1,0,0.1,0.1,0.1,0.1c0,0.1,0.1,1.4-0.5,2C16.5,27.4,16.4,27.4,16.4,27.4z M8.8,26.4l7.5,0.7
						c0.4-0.4,0.4-1.3,0.4-1.6l-7.8-0.8C8.3,25.9,8.7,26.3,8.8,26.4z"/>
				</g>
				<g>
					<path class="st9" d="M9,25.3L9.1,25c0,0,4.3,0.2,7.9,0.7c0.1,0,0.2-0.1,0.2-0.2v-0.2c0-0.1-0.1-0.2-0.1-0.2
						c-3.4-0.7-8.4-0.7-8.4-0.7l-0.3,0.6c0,0-0.3,0-0.4,0.4c-0.1,0.5,0.3,0.7,0.3,0.7l0.2,0.6l8.4,0.8c0.1,0,0.2-0.1,0.2-0.2v-0.1
						c0-0.1-0.1-0.2-0.1-0.2c-2.5-0.4-7.9-0.8-7.9-0.8L8.9,26C8.4,25.5,9,25.3,9,25.3z"/>
				</g>
				<g>
					<path class="st3" d="M16.9,27.7C16.9,27.7,16.8,27.7,16.9,27.7l-8.4-0.8c-0.1,0-0.1-0.1-0.1-0.1l-0.2-0.5
						c-0.2-0.1-0.5-0.4-0.4-0.8c0.1-0.4,0.3-0.5,0.5-0.5l0.2-0.5c0-0.1,0.1-0.1,0.2-0.1l0,0c0.1,0,5,0.1,8.4,0.7
						c0.2,0,0.3,0.2,0.3,0.3v0.2c0,0.1,0,0.2-0.1,0.3s-0.2,0.1-0.3,0.1c-3.2-0.5-7-0.7-7.8-0.7l-0.1,0.2c0,0-0.1,0.1-0.1,0.1
						c-0.1,0-0.2,0.1-0.2,0.1c0,0.1,0,0.1,0.1,0.2c0,0,0,0,0,0.1l0.1,0.1c0.8,0.1,5.5,0.5,7.8,0.8c0.2,0,0.3,0.2,0.3,0.3v0.1
						c0,0.1,0,0.2-0.1,0.3C17,27.7,16.9,27.7,16.9,27.7z M8.6,26.6l8.3,0.7v-0.1c-2.5-0.3-7.9-0.8-7.9-0.8c-0.1,0-0.1-0.1-0.2-0.1
						l-0.1-0.2c-0.2-0.2-0.2-0.4-0.2-0.5c0-0.2,0.2-0.3,0.3-0.4l0.1-0.3c0-0.1,0.1-0.1,0.2-0.1c0,0,4.3,0.2,7.9,0.7v-0.2
						c-3.1-0.6-7.5-0.7-8.2-0.7l-0.2,0.5c0,0.1-0.1,0.1-0.2,0.1c0,0-0.2,0-0.3,0.3C8,25.8,8.3,26,8.3,26c0,0,0.1,0.1,0.1,0.1
						L8.6,26.6z M9,25.3L9,25.3L9,25.3z"/>
				</g>
				<g>
					<g>
						<line class="st12" x1="9.4" y1="25.5" x2="12.6" y2="25.9"/>
					</g>
					<g>
						<g>
							<path class="st3" d="M12.6,25.9c0,0.1-0.7,0-1.6-0.1s-1.6-0.2-1.6-0.3c0-0.1,0.7,0,1.6,0.1C11.9,25.7,12.7,25.8,12.6,25.9z"
								/>
						</g>
					</g>
				</g>
				<g>
					<g>
						<line class="st12" x1="13.5" y1="25.8" x2="16.8" y2="26.2"/>
					</g>
					<g>
						<g>
							<path class="st3" d="M16.8,26.2c0,0.1-0.7,0-1.7-0.1c-0.9-0.1-1.6-0.3-1.6-0.3c0-0.1,0.7,0,1.7,0.1
								C16.1,26,16.8,26.1,16.8,26.2z"/>
						</g>
					</g>
				</g>
			</g>
			<g>
				<g>
					<path class="st2" d="M19,24.5c-0.5,0.6-1,1-1.2,0.8c-0.2-0.1,0.1-0.7,0.6-1.3c0.5-0.6,1-1,1.2-0.8C19.7,23.3,19.5,23.9,19,24.5
						z"/>
				</g>
				<g>
					<path class="st3" d="M19.1,24.6c-0.2,0.2-0.4,0.4-0.6,0.5c-0.1,0.1-0.2,0.2-0.3,0.2c-0.1,0-0.1,0.1-0.2,0.1c0,0-0.1,0-0.1,0
						c0,0-0.1,0-0.2-0.1c-0.1,0-0.1-0.1-0.1-0.1s0-0.1,0-0.1c0-0.1,0-0.1,0-0.2c0-0.1,0.1-0.3,0.1-0.4c0.1-0.2,0.3-0.5,0.4-0.7
						c0.2-0.2,0.3-0.4,0.5-0.6c0.1-0.1,0.2-0.2,0.3-0.3c0.1,0,0.1-0.1,0.2-0.1c0,0,0.1,0,0.2,0c0.1,0,0.2,0,0.2,0.1
						c0.1,0.1,0.1,0.1,0.1,0.2c0,0.1,0,0.1,0,0.2c0,0.1,0,0.2-0.1,0.2c-0.1,0.1-0.1,0.3-0.2,0.4C19.5,24.2,19.3,24.4,19.1,24.6z
						 M18.9,24.4c0.1-0.2,0.3-0.4,0.4-0.6c0.1-0.1,0.1-0.2,0.1-0.3c0,0,0-0.1,0-0.1c0,0,0,0,0,0c0,0,0,0,0,0.1c0,0,0.1,0,0.1,0
						c0,0,0,0,0,0c0,0-0.1,0-0.1,0c-0.1,0-0.2,0.1-0.3,0.2c-0.2,0.1-0.4,0.3-0.5,0.5c-0.2,0.2-0.3,0.4-0.5,0.6
						c-0.1,0.1-0.1,0.2-0.2,0.3c0,0.1,0,0.1,0,0.2c0,0,0,0,0,0.1c0,0,0,0,0,0s0,0,0,0s0,0,0.1,0c0,0,0.1,0,0.1-0.1
						c0.1-0.1,0.2-0.1,0.3-0.2C18.6,24.8,18.7,24.6,18.9,24.4z"/>
				</g>
				<g class="st5">
					<path class="st3" d="M17,23.9c0,0-0.3,1.3,1.2,1.6c1.5,0.3,4.9-1.3,4.9-1.3L17,23.9z"/>
				</g>
				<g class="st5">
					<path class="st3" d="M23.8,25.1c0,0,1.1,2.8-2,6.1l-4-2.9l0.4-2.5c0,0-1.7,2.2-2.2,3.8c-0.4,1.6-0.5,4.5-0.5,4.5
						s4.3,1.3,7.4,0.6l0.1-2.3c0,0,0.4-0.7,0-1C23.2,31.4,26.1,26.8,23.8,25.1z"/>
				</g>
			</g>
			<g>
				<path class="st3" d="M19.7,35c-1.8,0-3.9-0.2-5.1-1.2c-0.1-0.1-0.1-0.2,0-0.4c0.1-0.1,0.2-0.1,0.4,0c1.9,1.6,6.8,1,7.9,0.9v-2.1
					c0-0.1,0-0.1,0.1-0.2c0.1-0.1,0.1-0.2,0.1-0.3l0,0l0.3-0.4c0.2,0.2,0.3,0.5,0,0.9v2.2c0,0.1-0.1,0.2-0.2,0.3
					C23.1,34.8,21.5,35,19.7,35z"/>
			</g>
			<g>
				<path class="st4" d="M25.9,26.8c0,0-0.2-3.5-4.5-2.8c-4.7,0.7-7,8.8,2.2,12.2l0.7-1.6c0,0-3.3-0.5-4.4-2.3
					c-1.1-1.8-3.9-4.3,1.1-7.2c2.3-1.3,4.1,0.9,3.7,2.4L25.9,26.8z"/>
			</g>
			<g class="st5">
				<path class="st3" d="M24.8,25c-0.7-0.5-1.7-0.8-3.2-0.5c-3.8,0.6-6.1,6.1-1.7,10c0.9,0.7,2.1,1.4,3.6,1.9l0.7-1.7
					c-0.8-0.2-2.5-0.3-3.5-1.3c-0.3-0.3-0.6-0.6-0.9-0.9c-1.1-1.8-3.9-4.3,1.1-7.2c1.2-0.7,2.3-0.4,3,0.3c0.6,0.4,1,1.2,1,1.9
					l0.8-0.4C25.8,27,25.7,25.9,24.8,25z"/>
			</g>
			<g>
				<path class="st3" d="M23.2,31.8c0,0-0.1,0-0.1,0c-0.1-0.1-0.2-0.2-0.1-0.3c1.5-2.6,1.9-4.7,1.1-5.8C23.7,25,22.9,24.8,22,25
					c-2,0.4-3.6,2.9-3.9,3.4c0.8,1.7,3.7,2.7,3.7,2.7c0.1,0,0.2,0.2,0.2,0.3s-0.2,0.2-0.3,0.2c-0.1,0-3.3-1.2-4-3.1
					c0-0.1,0-0.1,0-0.2c0.1-0.1,1.8-3.2,4.3-3.7c1.1-0.2,2.1,0.1,2.7,0.9c0.5,0.8,1.1,2.6-1.1,6.3C23.4,31.8,23.3,31.8,23.2,31.8z"
					/>
			</g>
			<g>
				<path class="st3" d="M23.4,29c0,0.3-0.1,0.5-0.2,0.7c-0.1,0.2-0.2,0.5-0.3,0.7c-0.1,0.2-0.3,0.4-0.4,0.6
					c-0.2,0.2-0.3,0.4-0.6,0.5c-0.1,0.1-0.3,0-0.3-0.1c-0.1-0.1,0-0.2,0.1-0.3l0,0c0.1-0.1,0.3-0.3,0.5-0.5c0.1-0.2,0.3-0.4,0.5-0.5
					l0.5-0.6C23.1,29.4,23.2,29.2,23.4,29z"/>
			</g>
			<g>
				<path class="st4" d="M24.8,31.2c0.2-1.4,0-2.2-0.1-3.4c0,0,1.2-1.6,2.9-0.9c1.7,0.7,1.6,9.4,0.8,10.7c-0.8,1.3-4.5-0.2-4.5-0.2
					s-0.7-0.3-0.3-1.2"/>
			</g>
			<g class="st5">
				<path class="st3" d="M25,37.4c0,0-0.7-0.3-0.3-1.2c0,0,1-2.2,1.2-5c0.1-1.4,0-2.2-0.1-3.4c0,0,0.6-0.9,1.6-1
					c-1.6-0.4-2.7,1-2.7,1c0.1,1.2,0.3,2,0.1,3.4l-1.2,5c-0.3,0.9,0.3,1.2,0.3,1.2s2.1,0.9,3.4,0.7C26.2,37.9,25,37.4,25,37.4z"/>
			</g>
			<g>
				<path class="st3" d="M24.4,34.9C24.4,34.9,24.4,34.9,24.4,34.9c-2.6-0.7-4.2-1.7-5-3.2c-0.1-0.1,0-0.2,0.1-0.3
					c0.1-0.1,0.2,0,0.3,0.1c0.7,1.4,2.3,2.4,4.7,3c0.1,0,0.2,0.1,0.2,0.3C24.6,34.8,24.5,34.9,24.4,34.9z"/>
			</g>
			<g>
				<polyline class="st13" points="19,25.2 20.1,25.7 19.1,26.6 18.2,26.3 				"/>
			</g>
			<g>
				<path class="st3" d="M23.7,36.4C23.6,36.4,23.6,36.4,23.7,36.4c-2.4-0.9-4.1-2.1-5.2-3.6c-1-1.3-1.4-2.8-1.2-4.3
					c0.1-1.2,0.6-2.3,1.4-3.2c0.8-0.9,1.8-1.5,2.9-1.6c1.5-0.2,2.6,0,3.5,0.7c1.1,0.9,1.2,2.3,1.2,2.4c0,0.1-0.1,0.2-0.2,0.2
					s-0.2-0.1-0.2-0.2l0,0c0,0-0.1-1.3-1.1-2.1c-0.7-0.6-1.8-0.8-3.1-0.6c-2,0.3-3.7,2.2-3.9,4.4c-0.3,3.1,2,5.8,6.1,7.4
					c0.1,0,0.2,0.2,0.1,0.3C23.8,36.3,23.7,36.4,23.7,36.4z"/>
			</g>
			<g>
				<path class="st3" d="M19.1,26.8C19.1,26.8,19,26.8,19.1,26.8l-1-0.4c-0.1,0-0.2-0.2-0.1-0.3c0-0.1,0.2-0.2,0.3-0.1l0.8,0.3
					l0.6-0.6l-0.8-0.3c-0.1,0-0.2-0.2-0.1-0.3s0.2-0.2,0.3-0.1l1.1,0.5c0.1,0,0.1,0.1,0.1,0.2c0,0.1,0,0.1-0.1,0.2l-1,0.9
					C19.2,26.8,19.2,26.8,19.1,26.8z"/>
			</g>
			<g>
				<path class="st2" d="M18.5,28.5l-2.1,2.8c-0.5,0.1-1-0.1-1.3-0.2c-0.2-0.1-0.4-0.1-0.6,0.1l0,0c-0.2,0.2-0.2,0.5-0.1,0.7
					l0.5,0.7c0,0-0.9,1-1.1,1.4c-0.4,0.7,0.7,0.4,0.7,0.4s1.7,0.7,2.3,0.5c0.6-0.2,1.5-1.3,1.5-1.3l3.1-2.5
					C20.9,29.7,19.9,28.9,18.5,28.5z"/>
			</g>
			<g>
				<g class="st7">
					<path class="st8" d="M14.7,31.9c0-0.1,0.1-0.3,0.2-0.3l0,0c0.2-0.1,0.4-0.2,0.6-0.1c0.3,0.2,0.7,0.3,1.3,0.2l2-3.2
						c-0.2-0.1,0,0-0.2-0.1l-2.1,2.8c-0.5,0.1-1-0.1-1.3-0.2c-0.2-0.1-0.4-0.1-0.6,0.1l0,0c-0.2,0.2-0.2,0.5-0.1,0.7L14.7,31.9z"/>
				</g>
			</g>
			<g class="st5">
				<g>
					<path class="st3" d="M21.1,30.2l-2.9,2.4c0,0-0.9,1.1-1.5,1.3c-0.4,0.1-1.9,0-2.6-0.3c-0.1,0.1-0.1,0.1-0.1,0.2
						c-0.4,0.7,0.7,0.4,0.7,0.4s1.7,0.7,2.3,0.5c0.6-0.2,1.5-1.3,1.5-1.3l3.1-2.5C21.5,30.6,21.3,30.4,21.1,30.2z"/>
				</g>
			</g>
			<g>
				<path class="st10" d="M34.7,23.2l-2.9-4.8c-3.2,0.4-5.8,1.2-4.8,3.9l2.8,2c1.4,0.4,3.6,0,4.6-0.3c0.3-0.1,0.5-0.3,0.5-0.6
					C34.8,23.4,34.7,23.2,34.7,23.2z"/>
			</g>
			<g class="st7">
				<g>
					<path class="st8" d="M34.7,23l-2.9-5.4c-1.2,0.2-2.3,0.4-3.2,0.8c0.7-0.2,1.6-0.4,2.5-0.5l2.9,5.4c0.1,0.1,0.1,0.2,0.1,0.3
						c0,0.2-0.1,0.4-0.2,0.5c0.1,0,0.3-0.1,0.4-0.1c0.3-0.1,0.5-0.3,0.5-0.6C34.8,23.3,34.7,23.1,34.7,23z"/>
				</g>
			</g>
			<g class="st5">
				<path class="st3" d="M30.6,24.4c-0.3,0-0.6-0.1-0.9-0.1l-2.8-2c-1-2.8,1.6-3.6,4.8-3.9l0.9,1.5c-0.4,0.7-1.1,1.5-2.2,2
					C29.5,22.4,29.8,23.4,30.6,24.4z"/>
			</g>
			<g>
				<path class="st14" d="M33.3,8.9c-5.1-7.5-12.4-7.7-15.5-7.4C16.8,1.6,16,2,15.3,2.7c-2.6,2.9-3.3,5.8-3.3,5.8l20,10.4
					c1.4-1.8,1.9-5,2-7C34.2,10.8,33.9,9.8,33.3,8.9z"/>
			</g>
			<g>
				<path class="st10" d="M33.3,8.9c-5.1-7.5-12.4-7.7-15.5-7.4C16.8,1.6,16,2,15.3,2.7c-2.6,2.9-3.3,5.8-3.3,5.8l20,10.4
					c1.4-1.8,1.9-5,2-7C34.2,10.8,33.9,9.8,33.3,8.9z"/>
			</g>
			<g>
				<path class="st8" d="M16.9,5.5l-0.6,0.6v0.6c0,0,0,0.6,0.6,0.6v0.6c0,0-0.6-0.6-1.9,0h-0.6L15,5.5L16.9,5.5L16.9,5.5z"/>
			</g>
			<g class="st7">
				<g>
					<path class="st8" d="M16.9,2c3.3-0.3,11.3-0.1,16.9,8c-0.1-0.5-0.3-0.9-0.6-1.4C28.1,1.2,20.7,1,17.6,1.3
						c-0.9,0.1-1.8,0.5-2.4,1.2c-0.1,0.1-0.1,0.1-0.2,0.2C15.6,2.3,16.2,2.1,16.9,2z"/>
				</g>
			</g>
			<g>
				<path class="st15" d="M15.2,5.8L16.1,4c0,0,3.1-0.8,3.8,0.1s0.2,1.6,0.2,1.6S17.4,5.4,15.2,5.8z"/>
			</g>
			<g>
				<path class="st15" d="M13,8.6c0,0-2.8-0.9-3.6,2.3l0.9-0.4c0,0-0.7,0.7-0.7,1.6c0,0,0.6-0.5,1.4-0.8c0,0-0.7,0.5-0.8,1.5
					c0,0,0.3-0.3,0.7-0.3c0,0,0.1,0.7-0.6,1c0,0,0.3,1.1,1.5,1.5c0,0,13.8,5.8,16.4,5.7s3.5-2.3,3.5-2.3C26.9,4.6,13,8.6,13,8.6z"/>
			</g>
			<g>
				<path class="st2" d="M28.3,20.6c1.7,0.1,2.9-1.3,2.2-2.4c-0.7-1.2-2-0.2-2-0.2c0.1,1.6-1.1,2-1.1,2c-0.8-0.6-0.4-1.9-0.4-1.9
					s-2.1-0.8-1.9-4.5l-3.5-2.7V8.4c0,0-4.6-1.4-8.6,0.2l0.1,1.8l-1.5,2.2l0.4,4.6c-0.4,0.5-0.6,1.2-0.6,1.8c0,2.7,3.3,5.4,8.2,5.4
					C23.9,24.4,27.4,22.8,28.3,20.6"/>
			</g>
			<g>
				<path class="st2" d="M28.3,20.6c1.7,0.1,2.9-1.3,2.2-2.4c-0.7-1.2-2-0.2-2-0.2c0.1,1.6-1.1,2-1.1,2c-0.8-0.6-0.4-1.9-0.4-1.9
					s-2.1-0.8-1.9-4.5L22,11.1c-0.2-0.2-0.4-0.4-0.4-0.7v-2c0,0-4.6-1.4-8.6,0.2l0.1,1.8l-1.5,2.2l0.4,4.6c-0.4,0.5-0.6,1.2-0.6,1.8
					c0,2.7,3.3,5.4,8.2,5.4C23.9,24.4,27.4,22.8,28.3,20.6"/>
			</g>
			<g class="st5">
				<path class="st3" d="M30.2,17.8C30.2,17.8,30.1,17.8,30.2,17.8c-0.3,0.6-0.9,1.1-1.8,1.3c-0.3,0.7-0.9,1-0.9,1
					c-0.1-0.1-0.1-0.1-0.2-0.2c-1.3,1.8-4.5,3-8.1,3c-3.6,0-6.4-1.5-7.6-3.4c0.1,0.6,0.4,1.3,0.8,1.8c1.4,1.5,3.9,2.6,7,2.6
					c4.2,0,7.7-1.6,8.6-3.8C29.6,20.3,30.8,19,30.2,17.8z"/>
			</g>
			<g>
				<path class="st3" d="M19.7,24.7c-2.3,0-4.5-0.6-6.1-1.7c-1.5-1-2.4-2.5-2.4-3.9c0-0.7,0.2-1.3,0.6-1.9l-0.4-4.5
					c0-0.1,0-0.1,0-0.2l1.4-2c0.1-0.1,0.1-0.2,0.1-0.3l-0.1-1.6c0-0.1,0.1-0.2,0.2-0.3c4.1-1.7,8.6-0.3,8.8-0.2
					c0.1,0,0.2,0.1,0.2,0.2v2c0,0.2,0.1,0.4,0.3,0.6l3.1,2.4c0.1,0.1,0.1,0.1,0.1,0.2c-0.1,3.5,1.7,4.3,1.8,4.3
					c0.1,0.1,0.2,0.2,0.1,0.3c0,0-0.3,1,0.2,1.6c0.3-0.1,0.9-0.6,0.8-1.7c0-0.1,0-0.2,0.1-0.2c0,0,0.7-0.6,1.4-0.4
					c0.4,0.1,0.7,0.3,0.9,0.7c0.3,0.5,0.3,1.2,0,1.7c-0.4,0.7-1.3,1.1-2.3,1.1C27.4,23.1,23.8,24.7,19.7,24.7z M11.9,12.7l0.4,4.5
					c0,0.1,0,0.1,0,0.2c-0.4,0.5-0.6,1.1-0.6,1.7c0,2.5,3,5.1,8,5.1c2,0,3.9-0.4,5.4-1.1c1.5-0.7,2.5-1.6,2.9-2.6
					c0-0.1,0.1-0.2,0.3-0.2c0.9,0.1,1.6-0.3,2-0.9c0.2-0.4,0.2-0.8,0-1.2c-0.1-0.2-0.3-0.4-0.5-0.4c-0.4-0.1-0.8,0.1-0.9,0.3
					c0,1.3-0.8,2-1.3,2.1c-0.1,0-0.2,0-0.2,0c-0.8-0.5-0.6-1.6-0.5-2c-0.5-0.3-2-1.4-1.9-4.5l-3-2.3c-0.3-0.2-0.5-0.6-0.5-1V8.6
					c-0.9-0.2-4.7-1.1-8.1,0.2l0.1,1.4c0,0.2,0,0.4-0.2,0.6L11.9,12.7z"/>
			</g>
			<g>
				<path class="st3" d="M12.7,12.5l0.3,0.5c0,0,0.2-0.9,1-0.9s1.1,0.6,1.1,0.6l0.4-1c0,0-0.3-0.7-1.4-0.6
					C13.1,11.2,12.7,12.5,12.7,12.5z"/>
				<path class="st3" d="M13.1,13.1C13.1,13.1,13,13.1,13.1,13.1l-0.4-0.5c0,0,0,0,0-0.1c0,0,0.3-1.3,1.5-1.5
					c1.2-0.1,1.5,0.6,1.5,0.7c0,0,0,0,0,0.1l-0.4,1c0,0,0,0-0.1,0c0,0-0.1,0-0.1,0c0,0-0.3-0.6-1.1-0.6C13.3,12.2,13.2,13,13.1,13.1
					C13.1,13.1,13.1,13.1,13.1,13.1C13.1,13.1,13.1,13.1,13.1,13.1z M12.8,12.5l0.2,0.4c0.1-0.3,0.4-0.8,1.1-0.8
					c0.7,0,1,0.3,1.1,0.5l0.3-0.8c-0.1-0.1-0.4-0.6-1.4-0.5C13.2,11.3,12.9,12.3,12.8,12.5z"/>
			</g>
			<g>
				<path class="st3" d="M18.4,12.8l0.3,0.5c0,0,0.2-0.9,1-0.9c0.9,0,1.1,0.6,1.1,0.6l0.6-0.8c0,0-0.5-0.9-1.6-0.8
					C18.7,11.5,18.4,12.8,18.4,12.8z"/>
				<path class="st3" d="M18.7,13.3C18.7,13.3,18.7,13.3,18.7,13.3l-0.4-0.5c0,0,0,0,0-0.1c0,0,0.3-1.3,1.5-1.5
					c1.2-0.1,1.7,0.8,1.7,0.8c0,0,0,0.1,0,0.1L20.9,13c0,0,0,0-0.1,0c0,0,0,0-0.1,0c0,0-0.3-0.6-1.1-0.6
					C19,12.4,18.8,13.3,18.7,13.3C18.8,13.3,18.8,13.3,18.7,13.3C18.7,13.3,18.7,13.3,18.7,13.3z M18.5,12.8l0.2,0.4
					c0.1-0.3,0.4-0.8,1.1-0.8c0.7,0,1,0.4,1.1,0.5l0.5-0.6c-0.1-0.2-0.6-0.8-1.5-0.7C18.8,11.5,18.5,12.6,18.5,12.8z"/>
			</g>
			<g>
				<path class="st3" d="M18.4,19.6C18.4,19.6,18.3,19.6,18.4,19.6c-0.3-0.1-0.5-0.2-0.7-0.4c-0.1-0.1-0.1-0.3,0-0.4
					c0.1-0.1,0.3-0.1,0.4,0c0.1,0.1,0.2,0.2,0.4,0.2c0.1,0.1,0.2,0.2,0.1,0.3C18.6,19.6,18.5,19.6,18.4,19.6z"/>
			</g>
			<g>
				<path class="st3" d="M17.7,18.8c-0.1,0-0.2-0.1-0.2-0.2c-0.1-0.5,0.1-1,0.1-1c0.1-0.1,0.2-0.2,0.3-0.1c0.1,0.1,0.2,0.2,0.1,0.3
					c0,0-0.1,0.3,0,0.7C18,18.7,17.9,18.8,17.7,18.8C17.7,18.8,17.7,18.8,17.7,18.8z"/>
			</g>
			<g>
				<path class="st3" d="M17.9,19.1L17.9,19.1c0,0-0.1,0.3-0.2,0.6c-0.2,0.4-0.5,1-1,1.1c0,0,0,0,0,0c-0.5,0.1-1.1-0.2-1.1-0.8
					c0,0,0-0.1,0-0.1c0-0.7-0.2-1.2-0.2-1.2c0,0,0.9,0.7,2.4-0.2C17.7,18.8,17.8,18.9,17.9,19.1z"/>
			</g>
			<g>
				<path class="st16" d="M17.7,19.7c-0.2,0.4-0.5,1-1,1.1c0,0,0,0,0,0c-0.5,0.1-1.1-0.2-1.1-0.8c0.4-0.3,0.9-0.5,1.4-0.5
					C17.2,19.6,17.4,19.6,17.7,19.7z"/>
			</g>
			<g>
				<path class="st3" d="M16.4,21.1c-0.2,0-0.5-0.1-0.7-0.2c-0.3-0.2-0.5-0.6-0.5-0.9c0-0.6-0.1-1-0.2-1.1v0c0-0.1,0-0.2,0.1-0.3
					c0.1-0.1,0.2-0.1,0.3,0c0,0,0.8,0.6,2.1-0.2c0.1,0,0.2,0,0.2,0c0.1,0,0.1,0.1,0.1,0.2c0,0.1,0.1,0.3,0.2,0.4
					c0.1,0.1,0.1,0.2,0.1,0.3c-0.1,0.2-0.5,1.6-1.5,1.9h0l0,0C16.6,21.1,16.5,21.1,16.4,21.1z M15.7,19.2c0,0.2,0.1,0.5,0.1,0.7
					c0,0.2,0.1,0.4,0.3,0.5c0.2,0.1,0.4,0.2,0.6,0.1l0,0c0.6-0.2,0.9-1,1.1-1.5c0-0.1-0.1-0.1-0.1-0.2
					C16.7,19.4,16.1,19.3,15.7,19.2z"/>
			</g>
			<g>
				<path class="st3" d="M15.3,19c-0.1,0-0.1,0-0.2-0.1l0,0c-0.1-0.1-0.1-0.3,0-0.4c0.1-0.1,0.3-0.1,0.4,0c0.1,0.1,0.1,0.3,0,0.4
					C15.4,19,15.4,19,15.3,19z"/>
			</g>
			<g>
				<path class="st3" d="M30.2,20.3c-0.1,0-0.2,0-0.2-0.1c-0.1-0.1,0-0.3,0.1-0.3c1.1-0.7,1.4-1.3,1.5-1.5c-0.1-0.3-0.6-2-1.9-4
					c-1.3-2-3.8-4.5-8-5.8c-0.1,0-0.2-0.2-0.2-0.3c0-0.1,0.2-0.2,0.3-0.2c4.4,1.2,7,3.9,8.3,6c1.5,2.2,1.9,4.1,1.9,4.2
					c0,0,0,0.1,0,0.1c0,0-0.2,1-1.7,1.9C30.2,20.3,30.2,20.3,30.2,20.3z"/>
			</g>
			<g>
				<path class="st3" d="M9.6,12.3c0,0-0.1,0-0.1,0c-0.1,0-0.1-0.1-0.1-0.2c0-0.3,0.1-0.7,0.2-0.9c-0.1,0-0.2,0-0.3,0
					c-0.1-0.1-0.1-0.2-0.1-0.3C9.5,9.8,10,9,10.7,8.6c1.1-0.6,2.3-0.3,2.4-0.2c0.1,0,0.2,0.2,0.2,0.3c0,0.1-0.2,0.2-0.3,0.2l0,0
					c0,0-1.1-0.3-2,0.2c-0.5,0.3-0.9,0.7-1.1,1.4l0.3-0.2c0.1-0.1,0.2,0,0.3,0.1c0.1,0.1,0.1,0.2,0,0.3c0,0-0.3,0.3-0.5,0.8
					c0.4-0.2,0.9-0.5,1.5-0.6c0.1,0,0.3,0.1,0.3,0.2c0,0.1-0.1,0.3-0.2,0.3c-1,0.2-1.8,0.9-1.8,0.9C9.7,12.3,9.6,12.3,9.6,12.3z"/>
			</g>
			<g>
				<path class="st3" d="M10.3,13c0,0-0.1,0-0.1,0C10,12.9,10,12.8,10,12.7c0.1-1.1,0.8-1.6,0.9-1.7c0.1-0.1,0.3-0.1,0.4,0
					c0.1,0.1,0.1,0.3,0,0.4c0,0-0.3,0.3-0.5,0.8c0.2-0.1,0.3-0.1,0.5-0.1c0.1,0,0.2,0.1,0.2,0.3s-0.1,0.2-0.3,0.2
					c-0.3,0-0.6,0.2-0.7,0.3C10.4,12.9,10.3,13,10.3,13z"/>
			</g>
			<g>
				<path class="st3" d="M11.9,15.2C11.8,15.2,11.8,15.2,11.9,15.2c-1.4-0.5-1.7-1.6-1.7-1.7c0-0.1,0-0.2,0.1-0.3
					c0.5-0.2,0.4-0.7,0.4-0.7c0-0.1,0.1-0.3,0.2-0.3c0.1,0,0.3,0.1,0.3,0.2c0.1,0.3,0,0.8-0.5,1.2c0.1,0.3,0.5,0.9,1.2,1.2
					c0.1,0,0.2,0.2,0.2,0.3C12.1,15.1,12,15.2,11.9,15.2z"/>
			</g>
			<g>
				<path class="st3" d="M32.1,19.1c-0.1,0-0.1,0-0.2-0.1c-0.1-0.1-0.1-0.2,0-0.4c1.4-1.7,1.8-5,2-6.8c0.1-1-0.2-2-0.8-2.9
					c-5-7.4-12.4-7.6-15.3-7.3c-0.9,0.1-1.7,0.5-2.3,1.2c-2.5,2.8-3.2,5.6-3.2,5.6c0,0.1-0.2,0.2-0.3,0.2c-0.1,0-0.2-0.2-0.2-0.3
					c0-0.1,0.7-2.9,3.3-5.9c0.7-0.8,1.6-1.2,2.6-1.3c3-0.3,10.6-0.2,15.8,7.5c0.6,0.9,0.9,2.1,0.8,3.2c-0.1,1.9-0.6,5.3-2.1,7.1
					C32.2,19.1,32.2,19.1,32.1,19.1z"/>
			</g>
			<g>
				<path class="st3" d="M33.3,16.5c-0.1,0-0.2-0.1-0.3-0.2c-0.4-2.4-2.3-5-4.9-7c-2.9-2.2-6.5-3.4-10-3.4S13.9,6.4,12.9,7l-0.1,0.1
					c-0.1,0.1-0.3,0-0.3-0.1c-0.1-0.1,0-0.3,0.1-0.3l0.1-0.1c1-0.6,1.8-1.1,5.5-1.1c3.6,0,7.3,1.2,10.3,3.5c2.8,2.1,4.7,4.8,5.1,7.3
					C33.6,16.4,33.5,16.5,33.3,16.5C33.4,16.5,33.3,16.5,33.3,16.5z"/>
			</g>
			<g>
				<path class="st3" d="M33.3,16.4c-0.1,0-0.2-0.1-0.2-0.1c-0.4-2.4-2.3-5.1-4.9-7.1C25.3,7,21.7,5.8,18.1,5.8s-4.3,0.5-5.3,1.1
					L12.7,7c-0.1,0.1-0.2,0-0.2-0.1c-0.1-0.1,0-0.2,0.1-0.2l0.1-0.1c1-0.6,1.8-1.1,5.5-1.1c3.6,0,7.3,1.2,10.3,3.5
					c2.7,2,4.6,4.8,5.1,7.3C33.5,16.3,33.4,16.4,33.3,16.4C33.4,16.4,33.3,16.4,33.3,16.4z"/>
			</g>
			<g>
				<path class="st8" d="M20.1,5.8c0,0-0.3,1.6-0.7,2.2c-0.6-0.1-1.4-0.1-2.2-0.1c-1.1-0.5-1.1-1-0.9-1.4c0.2-0.4,0.7-0.7,1.2-0.7
					c0.2,0,0.4,0,0.7,0C18.8,5.7,19.4,5.7,20.1,5.8z"/>
				<path class="st3" d="M19.4,8.1C19.4,8.1,19.4,8.1,19.4,8.1c-0.7-0.1-1.5-0.1-2.2-0.1c0,0,0,0-0.1,0c-0.6-0.2-0.9-0.5-1-0.9
					c-0.1-0.2-0.1-0.5,0.1-0.8c0.3-0.5,0.7-0.8,1.3-0.8c0.2,0,0.4,0,0.7,0c0.6,0,1.3,0,1.9,0.1c0,0,0.1,0,0.1,0.1c0,0,0,0.1,0,0.1
					c0,0.1-0.3,1.6-0.7,2.2C19.5,8,19.4,8.1,19.4,8.1z M17.4,7.6c0.6,0,1.2,0,1.9,0.1c0.3-0.5,0.5-1.5,0.6-1.9
					c-0.6-0.1-1.2-0.1-1.7-0.1c-0.2,0-0.4,0-0.7,0c-0.4,0-0.8,0.2-1,0.6c-0.1,0.2-0.1,0.4-0.1,0.5c0.1,0.3,0.4,0.5,0.9,0.7
					C17.3,7.6,17.4,7.6,17.4,7.6z"/>
			</g>
			<g>
				<path class="st3" d="M19.4,8.2C19.4,8.2,19.4,8.2,19.4,8.2C18.6,8.1,17.9,8,17.2,8c0,0-0.1,0-0.1,0c-0.6-0.3-1-0.6-1.1-0.9
					c-0.1-0.3-0.1-0.6,0.1-0.9c0.3-0.5,0.8-0.8,1.4-0.8c0.2,0,0.4,0,0.7,0c0.6,0,1.3,0,1.9,0.1c0.1,0,0.1,0,0.2,0.1
					c0,0.1,0.1,0.1,0,0.2c0,0.1-0.3,1.6-0.7,2.2C19.5,8.1,19.5,8.2,19.4,8.2z M17.4,7.5c0.6,0,1.2,0,1.8,0.1
					c0.2-0.4,0.4-1.2,0.5-1.7c-0.5-0.1-1.1-0.1-1.6-0.1c-0.2,0-0.4,0-0.6,0c-0.4,0-0.8,0.2-1,0.6c-0.1,0.2-0.1,0.3-0.1,0.5
					c0.1,0.2,0.3,0.4,0.8,0.6C17.3,7.5,17.4,7.5,17.4,7.5z"/>
			</g>
			<g>
				<path class="st8" d="M21.3,5c-0.1,0.9-0.4,2-0.8,3.1C20.2,8,19.8,8,19.4,7.9c0.5-1.2,0.7-2.4,0.8-3.1c0.1-0.4-0.2-0.7-0.5-0.8
					c-1.5-0.4-3.1-0.1-3.6,0C16,4,16,4,15.9,4.1c-0.4,0.7-1.1,2.2-1.4,4c-0.4,0.1-0.8,0.2-1.2,0.4c0.3-2.2,1.2-4.1,1.6-4.9
					c0.2-0.3,0.5-0.6,0.8-0.7c0.7-0.2,2.4-0.5,4.2,0C20.9,3.2,21.5,4,21.3,5z"/>
				<path class="st3" d="M13.3,8.6C13.3,8.6,13.3,8.6,13.3,8.6c-0.1-0.1-0.1-0.1-0.1-0.2c0.3-2.2,1.3-4.2,1.6-4.9
					c0.2-0.4,0.5-0.6,0.9-0.7c0.7-0.2,2.4-0.5,4.3,0C21,3,21.6,4,21.5,5l0,0c-0.2,1.1-0.5,2.2-0.8,3.2c0,0.1-0.1,0.1-0.2,0.1
					c-0.3-0.1-0.7-0.1-1.1-0.2c0,0-0.1,0-0.1-0.1c0,0,0-0.1,0-0.1c0.5-1.1,0.7-2.3,0.8-3.1c0.1-0.3-0.1-0.6-0.4-0.7
					c-1.5-0.4-3-0.1-3.6,0c0,0,0,0-0.1,0c-0.4,0.7-1.1,2.2-1.4,4c0,0.1-0.1,0.1-0.1,0.1C14.1,8.4,13.8,8.5,13.3,8.6
					C13.4,8.6,13.4,8.6,13.3,8.6z M18,2.8c-1,0-1.8,0.2-2.2,0.3c-0.3,0.1-0.6,0.3-0.7,0.6c-0.4,0.7-1.2,2.5-1.6,4.6
					c0.3-0.1,0.6-0.2,0.9-0.3c0.3-1.7,1-3.2,1.4-4c0-0.1,0.1-0.2,0.2-0.2c0.6-0.2,2.1-0.5,3.7,0c0.4,0.1,0.7,0.5,0.6,1
					c-0.1,0.8-0.4,1.9-0.8,3c0.3,0,0.5,0.1,0.8,0.1C20.7,7,21,6,21.2,4.9c0.1-0.8-0.4-1.7-1.2-1.9C19.3,2.9,18.6,2.8,18,2.8z
					 M21.3,5L21.3,5L21.3,5z"/>
			</g>
			<g>
				<path class="st3" d="M13.3,8.7c-0.1,0-0.1,0-0.2-0.1c-0.1-0.1-0.1-0.1-0.1-0.2c0.3-2.2,1.3-4.2,1.7-5c0.2-0.4,0.6-0.7,1-0.8
					c0.7-0.2,2.5-0.5,4.3,0c1,0.3,1.7,1.3,1.5,2.3l0,0c-0.2,1.2-0.5,2.2-0.8,3.2c0,0.1-0.2,0.2-0.3,0.2c-0.3-0.1-0.7-0.1-1.1-0.2
					c-0.1,0-0.1-0.1-0.2-0.1c0-0.1,0-0.1,0-0.2c0.5-1.1,0.7-2.3,0.8-3.1c0-0.2-0.1-0.5-0.3-0.5c-1.5-0.4-2.9-0.1-3.5,0
					c-0.3,0.6-1.1,2.2-1.4,3.9c0,0.1-0.1,0.2-0.2,0.2C14.2,8.5,13.8,8.6,13.3,8.7C13.4,8.7,13.4,8.7,13.3,8.7z M18,2.9
					c-1,0-1.8,0.2-2.2,0.3c-0.3,0.1-0.5,0.3-0.7,0.5c-0.4,0.7-1.2,2.4-1.5,4.4C13.9,8,14.1,8,14.3,7.9c0.3-1.7,1-3.2,1.4-3.9
					c0.1-0.1,0.2-0.2,0.3-0.2c0.6-0.2,2.2-0.5,3.8,0c0.5,0.1,0.8,0.6,0.7,1.1c-0.1,0.7-0.3,1.8-0.7,2.9c0.2,0,0.4,0.1,0.6,0.1
					c0.3-0.9,0.6-1.9,0.7-2.9c0.1-0.8-0.4-1.5-1.1-1.8C19.3,3,18.6,2.9,18,2.9z M21.3,5L21.3,5L21.3,5z M16.2,4.2L16.2,4.2L16.2,4.2
					z"/>
			</g>
			<g>
				<g>
					<path class="st17" d="M17.1,6.6"/>
				</g>
			</g>
			<g>
				<path class="st3" d="M17.1,6.4c-0.3,0-0.3,0.4,0,0.4C17.4,6.8,17.4,6.4,17.1,6.4z"/>
			</g>
			<g>
				<path class="st3" d="M18.1,6.4c-0.3,0-0.3,0.4,0,0.4C18.3,6.8,18.3,6.4,18.1,6.4z"/>
			</g>
			<g>
				<path class="st3" d="M19,6.5c-0.3,0-0.3,0.4,0,0.4S19.2,6.5,19,6.5z"/>
			</g>
			<g>
				<path class="st3" d="M27.8,12c0,0-0.1,0-0.1,0c-0.1-0.1-0.1-0.2,0-0.3c1.5-2,1.9-3.7,1.9-4.9c0-1.2-0.3-2-0.3-2
					c0-0.1,0-0.2,0.1-0.2c0.1,0,0.2,0,0.2,0.1c0,0,0.4,0.9,0.3,2.2c0,1.2-0.4,3.1-2,5.1C27.9,11.9,27.8,12,27.8,12z"/>
			</g>
			<g>
				<path class="st3" d="M31.1,24.7c-0.5,0-1-0.1-1.5-0.2c0,0-0.1,0-0.1,0l-2.8-2c-0.1-0.1-0.1-0.2-0.1-0.4c0.1-0.1,0.2-0.1,0.4-0.1
					l2.7,2c1.4,0.4,3.5-0.1,4.4-0.3c0.2,0,0.3-0.2,0.3-0.3c0-0.1,0-0.1-0.1-0.2l-2.9-4.8c-0.1-0.1,0-0.3,0.1-0.3s0.3,0,0.3,0.1
					l2.9,4.8c0.1,0.1,0.1,0.3,0.1,0.4c0,0.4-0.3,0.7-0.7,0.8C33.7,24.4,32.4,24.7,31.1,24.7z"/>
			</g>
			<g>
				<path class="st3" d="M21.7,31.3c-0.1,0-0.2-0.1-0.2-0.2c-0.7-1.7-3.3-2.5-3.3-2.5c-0.1,0-0.2-0.2-0.2-0.3c0-0.1,0.2-0.2,0.3-0.2
					c0.1,0,2.8,0.9,3.6,2.8C22,31.1,21.9,31.2,21.7,31.3C21.8,31.3,21.7,31.3,21.7,31.3z"/>
			</g>
			<g>
				<path class="st3" d="M16.7,34.9c-0.7,0-1.7-0.4-2.1-0.5c-0.3,0.1-0.7,0.1-0.9-0.2c-0.1-0.1-0.2-0.3,0-0.6c0.2-0.3,0.7-1,1-1.3
					l-0.4-0.5c-0.2-0.3-0.2-0.8,0.1-1l0,0c0.2-0.2,0.6-0.2,0.9-0.1c0.2,0.1,0.6,0.3,1,0.2l2-2.7c0.1-0.1,0.2-0.1,0.4-0.1
					c0.1,0.1,0.1,0.2,0.1,0.4l-2.1,2.8c0,0.1-0.1,0.1-0.2,0.1c-0.6,0.1-1.1-0.1-1.4-0.3c-0.1-0.1-0.2,0-0.3,0l0,0
					c-0.1,0.1-0.1,0.2,0,0.3l0.5,0.7c0.1,0.1,0.1,0.2,0,0.3c-0.3,0.3-0.9,1.1-1.1,1.3c0,0,0,0.1,0,0.1c0.1,0,0.3,0,0.5,0
					c0.1,0,0.1,0,0.2,0c0.6,0.3,1.8,0.6,2.2,0.5c0.4-0.2,1.1-0.9,1.3-1.2c0,0,0,0,0,0l3.1-2.5c0.1-0.1,0.3-0.1,0.4,0
					c0.1,0.1,0.1,0.3,0,0.4l-3.1,2.5c-0.2,0.2-0.9,1.2-1.6,1.4C17,34.9,16.9,34.9,16.7,34.9z"/>
			</g>
			<g>
				<path class="st3" d="M22.4,30.9c-0.1,0-0.2-0.1-0.2-0.2c-1.1-2.8-3.7-3-3.8-3.1c-0.1,0-0.2-0.1-0.2-0.3c0-0.1,0.1-0.2,0.3-0.2
					c0.1,0,3,0.3,4.2,3.4C22.7,30.7,22.6,30.8,22.4,30.9C22.5,30.9,22.5,30.9,22.4,30.9z"/>
			</g>
			<g>
				<g>
					<g>
						<path class="st18" d="M21.5,36.1c-0.1,0-0.1,0-0.2,0c0,0-0.8-0.4-1.2-1.1c-0.1-0.1-0.1-0.3,0-0.4l0.8-1.5
							c0-0.1,0.1-0.1,0.2-0.2s0.2,0,0.3,0l1,0.6c0.2,0.1,0.2,0.3,0.1,0.5l-0.8,1.9c0,0.1-0.1,0.2-0.2,0.2
							C21.6,36.1,21.5,36.1,21.5,36.1z M20.9,34.8c0.1,0.2,0.3,0.3,0.5,0.4l0.5-1.2l-0.5-0.3L20.9,34.8z"/>
					</g>
				</g>
				<g>
					<path class="st3" d="M21.5,36.3c-0.1,0-0.2,0-0.2-0.1c0,0-0.8-0.4-1.3-1.1c-0.1-0.2-0.1-0.4,0-0.5l0.8-1.5
						c0.1-0.1,0.2-0.2,0.3-0.3c0.1,0,0.3,0,0.4,0.1l1,0.6c0.2,0.1,0.3,0.4,0.2,0.7L22,35.9c-0.1,0.1-0.2,0.2-0.3,0.3
						C21.6,36.2,21.6,36.3,21.5,36.3z M21.3,33.1C21.3,33.1,21.2,33.1,21.3,33.1c-0.1,0-0.1,0.1-0.2,0.1l-0.8,1.5c0,0.1,0,0.1,0,0.2
						c0.4,0.7,1.1,1,1.1,1c0,0,0.1,0,0.1,0s0.1-0.1,0.1-0.1l0.8-1.9c0-0.1,0-0.2-0.1-0.2L21.3,33.1C21.3,33.1,21.3,33.1,21.3,33.1z
						 M21.3,35.4c0,0-0.1,0-0.1,0c-0.2-0.1-0.4-0.3-0.5-0.5c0-0.1-0.1-0.1,0-0.2l0.6-1c0,0,0.1-0.1,0.1-0.1c0,0,0.1,0,0.1,0l0.5,0.3
						c0.1,0,0.1,0.1,0.1,0.2l-0.5,1.2C21.5,35.3,21.4,35.4,21.3,35.4C21.4,35.4,21.3,35.4,21.3,35.4z M21.1,34.7
						c0.1,0.1,0.1,0.1,0.2,0.2l0.4-0.8L21.5,34L21.1,34.7z"/>
				</g>
			</g>
			<g>
				<path class="st3" d="M24.2,32.7c0.1,0.1,0.1,0.3,0.1,0.5c0,0.2,0,0.3,0,0.5c0,0.2,0,0.3,0,0.5c0,0.1,0,0.2,0,0.2l0,0.2l-0.5-0.1
					l0.1-0.2c0-0.1,0.1-0.1,0.1-0.2c0.1-0.1,0.1-0.3,0.1-0.4c0-0.1,0.1-0.3,0.1-0.5C24.2,33,24.2,32.9,24.2,32.7z"/>
			</g>
			<g>
				<path class="st3" d="M24.8,31.1c0-0.6,0-1.1-0.1-1.7c-0.1-0.6-0.2-1.1-0.3-1.7c0-0.1,0-0.1,0-0.2l0,0l0,0c0-0.1,0.1-0.1,0.1-0.1
					c0,0,0.1-0.1,0.1-0.1c0.1-0.1,0.2-0.2,0.3-0.2c0.2-0.1,0.4-0.3,0.6-0.4c0.4-0.2,0.9-0.3,1.4-0.3c0.2,0,0.5,0.1,0.7,0.1l0.1,0
					l0,0l0,0l0.1,0c0,0,0.1,0,0.1,0.1l0,0l0,0c0.1,0.1,0.2,0.2,0.3,0.3c0.1,0.2,0.2,0.4,0.3,0.6c0.1,0.2,0.1,0.4,0.2,0.6
					c0.1,0.4,0.2,0.9,0.3,1.3c0.1,0.4,0.1,0.9,0.1,1.3c0.1,0.9,0.1,1.7,0.1,2.6c0,0.9-0.1,1.7-0.2,2.6c0,0.2-0.1,0.4-0.1,0.6
					c0,0.2-0.1,0.4-0.2,0.7c0,0.1-0.1,0.2-0.2,0.3s-0.2,0.2-0.3,0.3c-0.2,0.2-0.5,0.2-0.7,0.3c-0.2,0-0.5,0.1-0.7,0s-0.5,0-0.7-0.1
					c-0.4-0.1-0.9-0.2-1.3-0.3c-0.2-0.1-0.4-0.1-0.6-0.2c-0.1,0-0.2-0.1-0.3-0.1L24,37.6l-0.1,0c0,0-0.1,0-0.1-0.1
					c-0.1-0.1-0.2-0.2-0.3-0.3c0,0,0-0.1-0.1-0.1l0-0.1c0-0.1,0-0.1-0.1-0.2c0-0.3,0-0.5,0.1-0.8c0-0.1,0.2-0.2,0.3-0.1
					c0.1,0,0.2,0.2,0.1,0.3l0,0v0c-0.1,0.2-0.1,0.4-0.1,0.5c0,0,0,0.1,0,0.1c0,0,0,0,0,0c0,0,0,0,0,0c0,0.1,0.1,0.1,0.1,0.1
					c0,0,0,0,0,0l0.1,0l0.1,0.1c0.1,0,0.2,0.1,0.3,0.1c0.2,0.1,0.4,0.1,0.6,0.2c0.4,0.1,0.8,0.2,1.2,0.3c0.2,0,0.4,0.1,0.6,0.1
					c0.2,0,0.4,0,0.6,0c0.2,0,0.4-0.1,0.5-0.2c0.1,0,0.1-0.1,0.2-0.2c0-0.1,0.1-0.1,0.1-0.2c0.1-0.2,0.1-0.4,0.1-0.6
					c0-0.2,0.1-0.4,0.1-0.6c0.1-0.8,0.2-1.7,0.2-2.5c0-0.8,0-1.7-0.1-2.5c0-0.4-0.1-0.8-0.1-1.3c-0.1-0.4-0.1-0.8-0.2-1.2
					c-0.1-0.2-0.1-0.4-0.2-0.6c-0.1-0.2-0.2-0.4-0.3-0.5c-0.1-0.1-0.1-0.1-0.2-0.2l0,0l0,0c0,0,0,0,0,0l0,0l0,0l0,0l-0.1,0
					c-0.2-0.1-0.4-0.1-0.6-0.1c-0.4,0-0.8,0.1-1.1,0.2c-0.2,0.1-0.3,0.2-0.5,0.3c-0.1,0.1-0.1,0.1-0.2,0.2c0,0-0.1,0.1-0.1,0.1
					c0,0-0.1,0.1-0.1,0.1l0,0l0.1-0.2c0,0.6,0,1.1,0,1.7C25,30,25,30.6,24.8,31.1C24.9,31.2,24.8,31.2,24.8,31.1
					C24.8,31.2,24.8,31.2,24.8,31.1z"/>
			</g>
			<g>
				<g>
					<path class="st19" d="M25,33.3c0.6,0,1.8,0,2.9,0.3c0.1,0,0.2,0.2,0.1,0.3c-0.2,0.3-0.7,0.9-1.5,1.2c-0.1,0-0.1,0-0.2,0
						c-0.2-0.2-0.9-0.7-1.6-1.5C24.8,33.5,24.9,33.3,25,33.3z"/>
				</g>
				<g>
					<path class="st3" d="M26.6,35.4c-0.1,0-0.2,0-0.3-0.1c-0.3-0.2-1-0.7-1.6-1.6c-0.1-0.1-0.1-0.3,0-0.5c0.1-0.2,0.2-0.3,0.4-0.3
						l0,0c0.6,0,1.8,0,3,0.4c0.1,0,0.2,0.1,0.3,0.3c0.1,0.1,0,0.3-0.1,0.4c-0.2,0.3-0.7,1-1.6,1.3C26.7,35.4,26.6,35.4,26.6,35.4z
						 M25.2,33.6c0.6,0.7,1.2,1.2,1.4,1.3c0.7-0.3,1.1-0.7,1.3-1C26.8,33.6,25.8,33.6,25.2,33.6z M25,33.3L25,33.3L25,33.3z"/>
				</g>
			</g>
			<g class="st5">
				<path class="st3" d="M27.2,34.8c-0.2-0.2-0.9-0.6-1.5-1.4c-0.2,0-0.4,0-0.6,0c-0.2,0-0.3,0.2-0.2,0.3c0.6,0.9,1.3,1.3,1.6,1.5
					c0.1,0,0.1,0,0.2,0c0.3-0.1,0.5-0.2,0.7-0.4C27.3,34.8,27.2,34.8,27.2,34.8z"/>
			</g>
			<g>
				<g>
					<g>
						<path class="st8" d="M26.9,31.6c-0.2,0-0.4-0.2-0.4-0.4v-4.5c0-0.2,0.2-0.1,0.4-0.1s0.4-0.1,0.4,0.1v4.5
							C27.3,31.4,27.1,31.6,26.9,31.6z"/>
						<path class="st3" d="M26.9,31.8c-0.3,0-0.5-0.2-0.5-0.5v-4.5c0-0.1,0-0.2,0.1-0.2c0.1-0.1,0.2-0.1,0.3-0.1c0.1,0,0.2,0,0.2,0
							c0.1,0,0.2,0,0.3,0.1c0.1,0.1,0.1,0.1,0.1,0.2v4.5C27.5,31.5,27.2,31.8,26.9,31.8z M26.7,26.8v4.4c0,0.1,0.1,0.2,0.2,0.2
							c0.1,0,0.2-0.1,0.2-0.2v-4.4c0,0,0,0,0,0c0,0-0.1,0-0.1,0S26.8,26.8,26.7,26.8C26.8,26.8,26.8,26.8,26.7,26.8z"/>
					</g>
				</g>
				<g>
					<line class="st12" x1="26.6" y1="27" x2="27.3" y2="27.6"/>
					<path class="st3" d="M27.3,27.8C27.3,27.8,27.2,27.7,27.3,27.8L26.5,27c0,0,0-0.1,0-0.1c0,0,0.1,0,0.1,0l0.7,0.7
						C27.4,27.6,27.4,27.7,27.3,27.8C27.3,27.7,27.3,27.8,27.3,27.8z"/>
				</g>
				<g>
					<line class="st12" x1="26.6" y1="27.8" x2="27.3" y2="28.5"/>
					<path class="st3" d="M27.3,28.6C27.3,28.6,27.2,28.6,27.3,28.6l-0.8-0.7c0,0,0-0.1,0-0.1c0,0,0.1,0,0.1,0l0.7,0.7
						C27.4,28.4,27.4,28.5,27.3,28.6C27.3,28.6,27.3,28.6,27.3,28.6z"/>
				</g>
				<g>
					<line class="st12" x1="26.6" y1="28.6" x2="27.3" y2="29.3"/>
					<path class="st3" d="M27.3,29.4C27.3,29.4,27.2,29.4,27.3,29.4l-0.8-0.7c0,0,0-0.1,0-0.1c0,0,0.1,0,0.1,0l0.7,0.7
						C27.4,29.3,27.4,29.3,27.3,29.4C27.3,29.4,27.3,29.4,27.3,29.4z"/>
				</g>
				<g>
					<line class="st12" x1="26.6" y1="29.5" x2="27.3" y2="30.1"/>
					<path class="st3" d="M27.3,30.2C27.3,30.2,27.2,30.2,27.3,30.2l-0.8-0.7c0,0,0-0.1,0-0.1c0,0,0.1,0,0.1,0l0.7,0.7
						C27.4,30.1,27.4,30.2,27.3,30.2C27.3,30.2,27.3,30.2,27.3,30.2z"/>
				</g>
				<g>
					<line class="st12" x1="26.6" y1="30.3" x2="27.3" y2="31"/>
					<path class="st3" d="M27.3,31.1C27.3,31.1,27.2,31.1,27.3,31.1l-0.8-0.7c0,0,0-0.1,0-0.1c0,0,0.1,0,0.1,0l0.7,0.7
						C27.4,30.9,27.4,31,27.3,31.1C27.3,31.1,27.3,31.1,27.3,31.1z"/>
				</g>
			</g>
			<g class="st5">
				<g>
					<path class="st3" d="M13,9.5c0,0,11.2-4.8,18.5,9.2c0.1-0.2,0.2-0.4,0.2-0.4C26.9,4.6,13,8.6,13,8.6s-2.8-0.9-3.6,2.3l0.5-0.2
						C11,8.9,13,9.5,13,9.5z"/>
				</g>
			</g>
			<g>
				<g>
					<g>
						<g>
							<path class="st3" d="M14.7,14.3c-0.6-0.2-1.3,0.4-1.5,1.4s0.1,1.9,0.7,2.1c0.6,0.2,1.3-0.4,1.5-1.4
								C15.6,15.4,15.3,14.5,14.7,14.3z"/>
						</g>
					</g>
				</g>
				<g>
					<g>
						<g>
							<path class="st8" d="M14.6,14.7c-0.2,0-0.3,0.4-0.3,0.7c0,0.3,0.2,0.6,0.5,0.5c0.2,0,0.3-0.4,0.3-0.7
								C15,14.9,14.8,14.6,14.6,14.7z"/>
						</g>
					</g>
				</g>
				<g>
					<g>
						<g>
							<path class="st20" d="M13.6,16.6c-0.1,0.1-0.1,0.2-0.1,0.4c0.1,0.2,0.2,0.3,0.3,0.2c0.1-0.1,0.1-0.2,0.1-0.4
								C13.8,16.7,13.7,16.6,13.6,16.6z"/>
						</g>
					</g>
				</g>
			</g>
			<g>
				<path class="st3" d="M18.7,16.8c0-0.2,0-0.4,0.1-0.5c0.1-0.2,0.2-0.3,0.3-0.4c0.1-0.1,0.3-0.2,0.4-0.3c0.2-0.1,0.3-0.1,0.5-0.1
					c0.2,0,0.4,0,0.6,0c0.2,0,0.4,0.1,0.5,0.3s0.3,0.3,0.3,0.5c0.1,0.2,0.1,0.4,0.1,0.6c0,0.1-0.1,0.2-0.3,0.2
					c-0.1,0-0.1-0.1-0.2-0.2l0,0c-0.1-0.2-0.2-0.4-0.4-0.5c-0.2-0.1-0.4-0.2-0.6-0.2c-0.2,0-0.5,0.1-0.7,0.2
					c-0.1,0.1-0.2,0.1-0.3,0.2c-0.1,0.1-0.2,0.2-0.2,0.3v0C18.8,16.8,18.8,16.8,18.7,16.8C18.7,16.8,18.7,16.8,18.7,16.8z"/>
			</g>
			<g class="st5">
				<path class="st3" d="M34.1,11C34.1,11.1,34.1,11.1,34.1,11c-0.5,2-2.9,2.6-4.1,1.1c-2.7-3.2-6-4.6-9.1-5.2
					c0.2-0.7,0.3-1.4,0.4-2c0.1-0.9-0.4-1.8-1.3-2c-0.8-0.2-1.6-0.3-2.3-0.3c0.5,0,1.1,0.1,1.7,0.3c0.9,0.2,1.5,1.1,1.3,2
					c0,0.3-0.1,0.5-0.2,0.8c-0.1,0.6-0.7,1-1.3,0.9c-1.6-0.2-3.2-0.1-4.4,0.1c0.4-1.2,0.8-2.2,1.1-2.6C16,4.1,16,4,16.1,4
					c0.3-0.1,0.9-0.2,1.6-0.2c-1,0-1.9,0.1-2.3,0.2c-0.1,0-0.1,0.1-0.1,0.1c-0.2,0.4-0.4,0.8-0.7,1.5c-0.2,0.5-0.5,0.8-1,0.9
					c-0.4,0.1-0.8,0.3-1.1,0.6c-0.3,0.8-0.5,1.3-0.5,1.3l0.7,0.3c1.9-0.8,4.3-1.3,7.2-0.9c0,0,0,0.1,0,0.1c0.2,0,0.4,0.1,0.6,0.1
					c0,0,0-0.1,0-0.1c0.6,0.1,1.2,0.3,1.8,0.5c7.6,2.5,9.8,10.4,9.8,10.4c1.4-1.8,1.9-5,2-7C34.1,11.6,34.1,11.3,34.1,11z"/>
			</g>
			<g>
				<line class="st12" x1="18.2" y1="28" x2="18.7" y2="28.3"/>
			</g>
			<g>
				<path class="st3" d="M15.6,33.5c-0.1,0.2-0.2,0.3-0.4,0.5c-0.1,0.2-0.3,0.3-0.5,0.4l0,0c-0.1,0.1-0.3,0-0.4-0.1
					c-0.1-0.1,0-0.3,0.1-0.4c0,0,0.1,0,0.1,0c0.2,0,0.3-0.1,0.5-0.2C15.3,33.7,15.4,33.6,15.6,33.5z"/>
			</g>
		</g>
		<g>
			<g>
				<path class="st8" d="M6,10.7c0.4-0.4,0.7-1,0.8-1.7c0.2-1.6-1-3.1-2.6-3.3C2.6,5.6,1.1,6.7,1,8.3s1,3.1,2.6,3.3
					c0.4,0.1,0.9,0,1.3-0.1L6.1,12L6,10.7z"/>
			</g>
			<g class="st21">
				<g>
					<path class="st8" d="M4.1,6.3c1.5,0.2,2.6,1.5,2.6,2.9c0-0.1,0-0.2,0.1-0.3c0.2-1.6-1-3.1-2.6-3.3C2.6,5.5,1.2,6.7,1,8.3
						c0,0.1,0,0.2,0,0.3C1.3,7.1,2.6,6.1,4.1,6.3z"/>
				</g>
			</g>
			<g>
				<path class="st3" d="M6.1,12.3C6,12.3,6,12.2,6.1,12.3l-1.3-0.6c-0.4,0.1-0.9,0.2-1.3,0.1c-1.7-0.2-3-1.8-2.8-3.5
					c0.2-1.7,1.8-3,3.5-2.8c0.8,0.1,1.6,0.5,2.1,1.2S7.1,8.2,7,9c-0.1,0.7-0.4,1.3-0.8,1.7L6.3,12c0,0.1,0,0.1-0.1,0.2
					C6.1,12.2,6.1,12.3,6.1,12.3z M4.8,11.2C4.8,11.2,4.9,11.2,4.8,11.2l1,0.5l-0.1-1c0-0.1,0-0.1,0.1-0.2c0.4-0.4,0.7-1,0.7-1.6
					C6.7,8.3,6.4,7.6,6,7C5.5,6.4,4.9,6.1,4.2,6c-1.5-0.2-2.8,0.9-3,2.4c-0.2,1.5,0.9,2.8,2.4,3C4,11.4,4.4,11.4,4.8,11.2
					C4.8,11.2,4.8,11.2,4.8,11.2z"/>
			</g>
			<g class="st5">
				<path class="st3" d="M6,10.7c-0.9,0.5-2.1,0.5-3.1,0C1.8,10.1,1.1,9,1,7.9C1,8,1,8.2,1,8.3c-0.2,1.6,1,3.1,2.6,3.3
					c0.4,0.1,0.9,0,1.3-0.1L6.1,12L6,10.7C6,10.7,6,10.7,6,10.7z"/>
			</g>
			<g>
				<path class="st22" d="M4.8,7.8L4.8,7.8c-0.3-0.3-0.7-0.2-0.9,0l0,0l0,0c-0.3-0.3-0.7-0.3-0.9,0l0,0c-0.3,0.3-0.3,0.7,0,0.9l0,0
					l0.8,0.8c0.1,0.1,0.2,0.1,0.2,0l0.8-0.8l0,0C5,8.5,5,8.1,4.8,7.8z"/>
			</g>
		</g>
	</g>
</g>
</svg>
