<?xml version="1.0" encoding="utf-8"?>
<!-- Generator: Adobe Illustrator 26.3.1, SVG Export Plug-In . SVG Version: 6.00 Build 0)  -->
<svg version="1.1" id="Layer_1" xmlns="http://www.w3.org/2000/svg" xmlns:xlink="http://www.w3.org/1999/xlink" x="0px" y="0px"
	 viewBox="0 0 517 460.6" style="enable-background:new 0 0 517 460.6;" xml:space="preserve">
<style type="text/css">
	.st0{fill:#E5E5E5;}
	.st1{fill:#7750FB;}
	.st2{fill:#FC4F53;}
</style>
<rect class="st0" width="517" height="460.6"/>
<path class="st1" d="M322.7,179.6c2.4,3.6,4.1,7.6,4.9,12h26.5v122.4H162.9V191.7h27.7c1.2-4.5,3.4-8.6,6.3-12h-46v146.4h215V179.6
	H322.7L322.7,179.6z"/>
<circle class="st1" cx="191.2" cy="234.2" r="14.4"/>
<polygon class="st1" points="181.6,300.9 218.8,260.2 245.1,290.5 292,234.2 334.6,300.9 "/>
<path class="st2" d="M306.2,172.7c0.6-2.4,0.9-4.9,0.9-7.5c0-16.9-13.7-30.6-30.6-30.6c-11.3,0-21.1,6.1-26.4,15.2
	c-2.9-2.3-6.6-3.7-10.6-3.7c-9.3,0-16.9,7.5-16.9,16.8c0,2.9,0.7,5.6,2,8c-13.4,0.5-24.1,11.5-24.1,25c0,13.5,9.7,23.4,22.1,24.8
	c0.9,0.1,1.9,0.2,2.9,0.2h65.1c14.7,0,26.5-11.9,26.5-26.5C317.2,185.3,312.8,177.5,306.2,172.7L306.2,172.7z M275.7,186.6v22.1
	h-25.9v-22.5h-13.7l27.3-30.2l26.9,30.6C290.5,186.6,275.7,186.6,275.7,186.6z"/>
<path class="st1" d="M225.6,220.7h-2.9l0-0.2C223.6,220.7,224.6,220.7,225.6,220.7z"/>
</svg>
