<?xml version="1.0" standalone="no"?>
<!DOCTYPE svg PUBLIC "-//W3C//DTD SVG 20010904//EN"
 "http://www.w3.org/TR/2001/REC-SVG-20010904/DTD/svg10.dtd">
<svg version="1.0" xmlns="http://www.w3.org/2000/svg"
 width="513.000000pt" height="513.000000pt" viewBox="0 0 513.000000 513.000000"
 preserveAspectRatio="xMidYMid meet">
<metadata>
Created by potrace 1.14, written by Peter Selinger 2001-2017
</metadata>
<g transform="translate(0.000000,513.000000) scale(0.100000,-0.100000)"
fill="#000000" stroke="none">
<path d="M2668 5074 c-2 -1 -32 -4 -68 -5 -149 -6 -283 -61 -375 -154 -95 -95
-238 -295 -322 -451 -48 -88 -133 -284 -133 -308 0 -24 -18 -37 -74 -51 -75
-20 -134 -55 -185 -110 -52 -57 -100 -153 -116 -233 -4 -24 19 -47 36 -36 9 5
10 2 6 -9 -17 -45 -28 -102 -23 -122 9 -34 31 -37 71 -9 44 30 47 30 36 1 -30
-79 -14 -120 39 -100 27 10 28 9 17 -7 -6 -10 -21 -23 -34 -29 -28 -13 -29
-33 -4 -87 25 -55 84 -119 138 -151 23 -13 43 -28 44 -31 11 -104 13 -96 -30
-114 -118 -51 -172 -188 -121 -307 13 -28 40 -66 60 -84 32 -27 38 -40 44 -85
33 -276 306 -528 688 -637 l58 -16 -26 -35 c-26 -33 -29 -34 -78 -29 -28 3
-58 8 -66 10 -13 3 -58 9 -175 20 -16 2 -64 6 -105 10 -41 4 -93 8 -115 10
-79 8 -322 18 -435 19 l-115 1 -19 -42 c-11 -23 -30 -47 -42 -53 -52 -28 -64
-113 -22 -158 15 -15 33 -44 41 -64 17 -40 24 -43 117 -52 30 -3 56 -6 57 -6
1 0 0 -9 -2 -21 -2 -11 1 -29 8 -40 8 -13 9 -22 2 -27 -5 -4 -10 -18 -9 -32 1
-42 -4 -45 -76 -46 -82 -1 -100 -13 -100 -63 0 -51 22 -79 60 -76 30 3 34 -3
30 -38 -2 -25 18 -47 38 -40 10 3 8 -1 -5 -11 -13 -10 -23 -24 -23 -32 0 -8
-8 -14 -17 -15 -92 -4 -185 -68 -220 -149 -28 -67 5 -166 70 -213 76 -55 119
-63 307 -62 l145 1 37 -42 c62 -69 115 -85 296 -90 119 -2 171 -8 221 -23 121
-38 183 -47 241 -39 30 4 69 5 85 3 38 -6 183 -16 255 -19 54 -1 57 -3 120
-66 72 -72 132 -109 169 -103 29 4 61 30 61 49 0 15 53 9 58 -7 2 -5 12 -9 23
-9 16 0 19 -7 19 -40 0 -45 -4 -47 -49 -24 -37 19 -64 5 -59 -30 4 -28 105
-76 175 -83 29 -3 53 -9 53 -13 0 -10 100 -49 195 -77 131 -38 276 -54 359
-40 47 9 98 39 119 70 14 21 21 23 75 19 104 -7 171 30 237 134 47 73 67 137
70 223 4 130 -53 292 -125 353 -33 28 -39 29 -102 25 l-68 -4 0 37 c0 32 4 39
26 44 67 17 139 86 163 155 37 110 -20 280 -109 323 -29 14 -90 12 -130 -6
-11 -5 -20 7 -34 46 -47 135 -113 181 -254 183 l-84 1 -21 59 c-37 110 -91
182 -177 240 l-49 33 57 23 c74 29 206 96 259 131 l41 28 109 -78 c59 -42 121
-86 136 -97 15 -11 47 -34 70 -51 40 -29 54 -35 132 -49 35 -7 220 -8 250 -2
11 3 46 8 79 12 200 24 277 48 301 96 29 54 20 83 -72 232 -47 78 -126 209
-176 290 l-89 148 16 32 c8 18 24 45 34 60 11 16 36 72 57 125 21 54 42 106
46 117 12 25 65 263 74 330 4 28 9 59 11 70 12 63 19 155 19 265 0 111 -3 135
-29 213 -65 200 -339 530 -610 737 -332 253 -709 399 -1151 446 -61 6 -333 13
-337 8z"/>
<path d="M590 4475 c-113 -24 -206 -86 -269 -180 -183 -275 -1 -643 328 -661
36 -2 84 1 107 6 39 9 50 6 127 -30 116 -55 121 -52 113 68 -5 86 -4 98 13
116 56 60 94 182 90 286 -11 258 -256 448 -509 395z"/>
</g>
</svg>
